{
	"asset":{
		"version":"2.0",
		"generator":"Maxon Cinema 4D 2025.1.1 (#200000219)"
	},
	"scenes":[{
		"nodes":[0,
		1,
		2]
	}],
	"bufferViews":[{
		"buffer":0,
		"byteOffset":0,
		"byteLength":504,
		"target":34963
	},
	{
		"buffer":0,
		"byteOffset":504,
		"byteLength":8064,
		"target":34962,
		"byteStride":32
	},
	{
		"buffer":1,
		"byteOffset":0,
		"byteLength":98496,
		"target":34963
	},
	{
		"buffer":1,
		"byteOffset":98496,
		"byteLength":1575936,
		"target":34962,
		"byteStride":32
	},
	{
		"buffer":2,
		"byteOffset":0,
		"byteLength":16896,
		"target":34963
	},
	{
		"buffer":2,
		"byteOffset":16896,
		"byteLength":270336,
		"target":34962,
		"byteStride":32
	}],
	"nodes":[{
		"name":"Subdivisión Superficie.1",
		"children":[3]
	},
	{
		"name":"Subdivisión Superficie.2",
		"children":[4]
	},
	{
		"name":"Cilindro.1",
		"mesh":0
	},
	{
		"name":"Cilindro",
		"mesh":1
	},
	{
		"name":"Cilindro",
		"mesh":2,
		"translation":[0.0,
		2.4066553115844728,
		0.0],
		"rotation":[0.0,
		0.0,
		0.0,
		-1.0],
		"scale":[1.0,
		1.0,
		1.0]
	}],
	"meshes":[{
		"name":"Cilindro.1",
		"primitives":[{
			"attributes":{
				"POSITION":1,
				"NORMAL":2,
				"TEXCOORD_0":3
			},
			"indices":0,
			"material":0
		}]
	},
	{
		"name":"Cilindro",
		"primitives":[{
			"attributes":{
				"POSITION":5,
				"NORMAL":6,
				"TEXCOORD_0":7
			},
			"indices":4,
			"material":1
		}]
	},
	{
		"name":"Cilindro",
		"primitives":[{
			"attributes":{
				"POSITION":9,
				"NORMAL":10,
				"TEXCOORD_0":11
			},
			"indices":8,
			"material":2
		}]
	}],
	"accessors":[{
		"bufferView":0,
		"type":"SCALAR",
		"componentType":5123,
		"count":252,
		"min":[0],
		"byteOffset":0,
		"max":[251]
	},
	{
		"bufferView":1,
		"type":"VEC3",
		"componentType":5126,
		"count":252,
		"min":[0.33456531167030337,
		-0.8539317846298218,
		-0.29389262199401858],
		"byteOffset":0,
		"max":[0.5,
		1.1955045461654664,
		0.3715724050998688]
	},
	{
		"bufferView":1,
		"type":"VEC3",
		"componentType":5126,
		"count":252,
		"min":[0.7431387305259705,
		0.0,
		-0.5000110268592835],
		"byteOffset":12,
		"max":[1.0,
		0.0,
		0.6691373586654663]
	},
	{
		"bufferView":1,
		"type":"VEC2",
		"componentType":5126,
		"count":252,
		"min":[0.0,
		0.0],
		"byteOffset":24,
		"max":[1.0,
		0.8571428060531616]
	},
	{
		"bufferView":2,
		"type":"SCALAR",
		"componentType":5123,
		"count":49248,
		"min":[0],
		"byteOffset":0,
		"max":[49247]
	},
	{
		"bufferView":3,
		"type":"VEC3",
		"componentType":5126,
		"count":49248,
		"min":[-0.49658554792404177,
		-1.1955046653747559,
		-0.4965817630290985],
		"byteOffset":0,
		"max":[0.49658557772636416,
		2.3101935386657717,
		0.4965817630290985]
	},
	{
		"bufferView":3,
		"type":"VEC3",
		"componentType":5126,
		"count":49248,
		"min":[-1.0,
		-1.0,
		-1.0],
		"byteOffset":12,
		"max":[1.0,
		1.0,
		1.0]
	},
	{
		"bufferView":3,
		"type":"VEC2",
		"componentType":5126,
		"count":49248,
		"min":[0.0,
		0.0],
		"byteOffset":24,
		"max":[1.0,
		1.0]
	},
	{
		"bufferView":4,
		"type":"SCALAR",
		"componentType":5123,
		"count":8448,
		"min":[0],
		"byteOffset":0,
		"max":[8447]
	},
	{
		"bufferView":5,
		"type":"VEC3",
		"componentType":5126,
		"count":8448,
		"min":[-0.44153892993927,
		-0.1177048459649086,
		-0.44153892993927],
		"byteOffset":0,
		"max":[0.44153892993927,
		0.1177048459649086,
		0.44153892993927]
	},
	{
		"bufferView":5,
		"type":"VEC3",
		"componentType":5126,
		"count":8448,
		"min":[-1.0,
		-1.0,
		-1.0],
		"byteOffset":12,
		"max":[1.0,
		1.0,
		1.0]
	},
	{
		"bufferView":5,
		"type":"VEC2",
		"componentType":5126,
		"count":8448,
		"min":[0.0,
		0.0],
		"byteOffset":24,
		"max":[1.0,
		1.0]
	}],
	"buffers":[{
		"uri":"data:application/octet-stream;base64,",
		"byteLength":8568
	},
	{
		"uri":"data:application/octet-stream;base64,",
		"byteLength":1674432
	},
	{
		"uri":"data:application/octet-stream;base64,",
		"byteLength":287232
	}],
	"materials":[{
		"pbrMetallicRoughness":{
			"baseColorFactor":[1.0,
			1.0,
			1.0,
			1.0],
			"metallicFactor":0.0,
			"roughnessFactor":0.20000000298023225
		},
		"emissiveFactor":[0.0,
		0.0,
		0.0],
		"alphaMode":"OPAQUE",
		"doubleSided":false,
		"name":"Mat.1"
	},
	{
		"pbrMetallicRoughness":{
			"baseColorFactor":[0.0,
			0.0,
			0.0,
			1.0],
			"metallicFactor":0.0,
			"roughnessFactor":0.20000000298023225
		},
		"emissiveFactor":[0.0,
		0.0,
		0.0],
		"alphaMode":"OPAQUE",
		"doubleSided":false,
		"name":"Mat"
	},
	{
		"pbrMetallicRoughness":{
			"baseColorFactor":[0.8983200187969922,
			0.08347875174676009,
			0.08347875174676009,
			1.0],
			"metallicFactor":0.0,
			"roughnessFactor":0.20000000298023225
		},
		"emissiveFactor":[0.0,
		0.0,
		0.0],
		"alphaMode":"OPAQUE",
		"doubleSided":false,
		"name":"Mat.2"
	}]
}