<?xml version="1.0" encoding="UTF-8"?>
<svg xmlns="http://www.w3.org/2000/svg" version="1.1" viewBox="0 0 468.5 175.9">
  <defs>
    <style>
      .cls-1 {
        fill: #fff;
      }
    </style>
  </defs>
  <!-- Generator: Adobe Illustrator 28.6.0, SVG Export Plug-In . SVG Version: 1.2.0 Build 709)  -->
  <g>
    <g id="Capa_2">
      <path class="cls-1" d="M51.4,58.1c.2,0,.3.1.5.1.4,0,.9-.2,1.1-.7,0-.1,1.6-3.1,5.8-2.7.7,0,1.2-.4,1.3-1.1,0-.7-.4-1.2-1.1-1.3-5.9-.5-8.1,3.9-8.2,4-.3.6,0,1.3.6,1.6h0Z"/>
      <path class="cls-1" d="M78.4,55.7c-2,.5-3.5.4-4.5-.3-1.1-.8-1.2-2-1.2-2.1,0-.7-.6-1.1-1.3-1.1s-1.1.6-1.1,1.3c0,0,.2,2.4,2.2,3.8,1,.7,2.2,1.1,3.7,1.1s1.8-.1,2.7-.4c.6-.2,1-.8.9-1.4-.2-.6-.8-1-1.4-.9h0Z"/>
      <path class="cls-1" d="M58.2,58.9c-1.1-.7-2.6-.2-3.2.9-2.2,3.9-1.9,9.8-1.8,10.5,0,1.2,1.1,2.2,2.4,2.2h.2c1.3,0,2.3-1.2,2.2-2.5,0-1.4,0-5.5,1.2-7.8.7-1.1.2-2.6-.9-3.2Z"/>
      <path class="cls-1" d="M69.7,73.2h0c1.3,0,2.4-1.1,2.4-2.4s.3-5.2,1.6-7.5c.7-1.1.2-2.6-.9-3.2-1.1-.7-2.6-.2-3.2.9-2.2,3.9-2.2,9.6-2.2,9.9,0,1.3,1.1,2.3,2.4,2.3Z"/>
      <path class="cls-1" d="M74.9,76.2c-.3-.2-.8-.2-1.2,0-11.9,6.1-22.1.3-22.6,0-.4-.2-.9-.2-1.3,0-.4.3-.5.8-.4,1.3,0,0,.8,2.8,2.5,6.2h0c2.5,5.2,6.8,11.4,12.7,11.5h.1c4.9,0,8.4-4.2,10-12.2h0c.6-3.1.7-5.6.7-5.7,0-.4-.2-.8-.6-1h0ZM72.9,79.1c0,.8-.2,1.8-.4,2.9-3.4,2.8-7.5,3.7-12.3,2.7-3.1-.7-5.5-1.9-6.3-2.4-.5-1.1-.9-2.1-1.3-2.9,3.9,1.5,11.6,3.4,20.3-.3h0Z"/>
      <path class="cls-1" d="M18.4,74.7c6.2.6,7.8,7,7.9,7.3.1.5.6.9,1.1.9s.1,0,.2,0c.6-.1,1-.7,1-1.3-.7-5.1,3.8-9.6,3.8-9.6.4-.3.5-.9.3-1.3s-.7-.7-1.1-.7c-3.4.2-5.1-4.1-5.1-4.1-.2-.5-.7-.8-1.2-.8-.5,0-1,.5-1,1-.8,5.2-5.7,6.3-5.9,6.3-.6.1-1,.6-.9,1.2,0,.6.5,1.1,1.1,1.1h0ZM25.7,69.2c.8,1.1,2,2.2,3.6,2.8-.9,1.2-2.1,3.1-2.7,5.2-1-1.5-2.5-3-4.5-3.9,1.3-.8,2.7-2.1,3.6-4.1Z"/>
      <path class="cls-1" d="M116.8,53.6c3.4-.5,6.2-3.3,7.5-4.7.4-.5.2-1.2-.4-1.3-3.5-1.1-9.7,2.8-9.7,2.8.4-.9,3.7-8.3,1.1-9-2.6-.7-6.7,8-6.7,8-3.2-6.2-5.9-4.1-5.9-4.1-1.1.2.7,10,.7,10-6,12-14,17.9-17.2,19.9-.5-5.5-.4-11.1.5-15.4,0-.4.2-.8.2-1.2,1.2-1,4.8-4.3,7.5-8.9,4.4-7.5,4.2-14.8-.8-20.9-3.8-4.8-8.2-7.5-12.8-7.8-4.9-.4-8.8,1.9-10.5,3.1-5.5-3.3-12.6-5.7-19.7-2.6-3.9,1.7-6.2,4.2-6.8,7.5-1.2,6.6,4.8,14.1,7.2,16.8-2.7,3-4.7,6.3-6.2,9.1-3,5.7-4.5,10.5-4.6,10.9-2.8,8.4-2.7,15.7-1.4,21.6-2.7,3.3-8,14.7-10.5,20.4-.8,1.8-2.5,2.9-4.5,2.9-3.9,0-7.4,1.2-7.6,2.6-.3,1.7,8.6,1.1,6.6,1.8s-6.1,4.4-5.6,7.3c.5,2.9,8.3-4.3,8.3-4.3,0,0-5.2,5.9-2.8,8.5,2.5,2.7,5.9-6,5.9-6,1.4,3,3.2,5.9,4.7,5.7,1.3-.1,2.2-1.5,1.8-2.7-.6-2.1-1.7-5.4-2.4-7.6-1.2-3.8,5.3-18,7.7-23.1.9,2.2,1.9,4.1,2.9,5.8,2.8,4.6,7.1,8.3,12.1,10.7-1.4,5.3-5.6,24.4-.8,37.5-2.3,0-5.2.2-7.6.8-2.3.6-6.4,2-7.9,4.5-.5.9-.6,1.8-.4,2.7.3.9,1.3,1.7,3.1,2.3,2,.6,4.8,1.1,7.7,1.1s8-.8,10.6-2.8c0,0,.1-.1.2-.2,0-.1,2.1-2.8,0-6.7-.6-2.9-4.7-25.2.9-37.2,3.5,1,6.8,1.5,9.8,1.5s3.7-.2,5.4-.6c-.2,4.3-.3,23.1,13.7,30.3,0,0-.2.2-.2.3-1.2,2.5-4.8,10.8-2.7,13.6.9,1.2,2.4,1.9,3.9,1.9s.8,0,1.1-.1c1.9-.4,6.7-2.3,9.5-12.3.7-2.4,0-4.9-1.9-6.6-1.8-1.6-4.4-2.1-6.7-1.2h-.3c0,.1,0,.1-.1.2-3.5-2.7-11.9-11-11.2-28.1,1-.6,1.9-1.2,2.8-2,5-4.3,6.8-11.3,4.8-17.8-.8-2.6-1.5-5.7-2.1-9.1,6.1-.4,20.9-22.9,21.4-22.6.6.2,15.5,1.8,16.3,0,1.3-2.8-7.9-5.1-7.9-5.1h0ZM80.6,23.9c3.8.3,7.4,2.6,10.7,6.7,4.1,5.2,4.3,11.1.6,17.5-1.3,2.2-2.8,4.1-4.2,5.5,0-.8.9-8-1.1-12.7-1.6-3.7-6.8-10.1-13.1-14.8-.2-.1-.3-.3-.5-.4,1.6-1,4.4-2.2,7.6-1.9ZM46.7,29.5c.4-2.3,2.1-4,5-5.3,7.3-3.2,14.9.7,20,4.5,4.8,3.6,8.6,7.9,10.7,11.1-.8-.6-1.7-1.1-2.6-1.4-7.1-2.8-13.7-2.7-19.8.3-2.6,1.3-4.9,3-7,5-2.2-2.5-7.3-9-6.3-14.1ZM82.3,105.9c-5.5,4.8-13.6,5.2-23.9,1.3-5.2-2-9.7-5.6-12.5-10.2-3.8-6.2-7.4-16.6-2.9-30.4h0c0-.2,5.7-19.2,18.4-25.5,2.7-1.3,5.5-2,8.5-2s5.8.6,8.9,1.8c3.1,1.2,5.3,4.1,5.7,7.4.4,3.2.2,6.9-.7,10.8-2,9-.3,23.7,2.4,32.1,1.7,5.4.2,11.1-3.9,14.6h0Z"/>
      <path class="cls-1" d="M86.8,52.5s1-7.5-1-11.9c-2.8-6.4-19.5-25.2-34.1-18.9-14.6,6.4,1.8,22.9,1.8,22.9l5.1-4.3,4.3-2.2,9.1-1.3,8.8,2.3,3.8,3,2.1,10.4h0Z"/>
      <path class="cls-1" d="M51.4,58.1c.2,0,.3.1.5.1.4,0,.9-.2,1.1-.7,0-.1,1.6-3.1,5.8-2.7.7,0,1.2-.4,1.3-1.1,0-.7-.4-1.2-1.1-1.3-5.9-.5-8.1,3.9-8.2,4-.3.6,0,1.3.6,1.6h0Z"/>
      <path class="cls-1" d="M78.4,55.7c-2,.5-3.5.4-4.5-.3-1.1-.8-1.2-2-1.2-2.1,0-.7-.6-1.1-1.3-1.1s-1.1.6-1.1,1.3c0,0,.2,2.4,2.2,3.8,1,.7,2.2,1.1,3.7,1.1s1.8-.1,2.7-.4c.6-.2,1-.8.9-1.4-.2-.6-.8-1-1.4-.9h0Z"/>
      <path class="cls-1" d="M58.2,58.9c-1.1-.7-2.6-.2-3.2.9-2.2,3.9-1.9,9.8-1.8,10.5,0,1.2,1.1,2.2,2.4,2.2h.2c1.3,0,2.3-1.2,2.2-2.5,0-1.4,0-5.5,1.2-7.8.7-1.1.2-2.6-.9-3.2Z"/>
      <path class="cls-1" d="M69.7,73.2h0c1.3,0,2.4-1.1,2.4-2.4s.3-5.2,1.6-7.5c.7-1.1.2-2.6-.9-3.2-1.1-.7-2.6-.2-3.2.9-2.2,3.9-2.2,9.6-2.2,9.9,0,1.3,1.1,2.3,2.4,2.3Z"/>
      <path class="cls-1" d="M74.9,76.2c-.3-.2-.8-.2-1.2,0-11.9,6.1-22.1.3-22.6,0-.4-.2-.9-.2-1.3,0-.4.3-.5.8-.4,1.3,0,0,.8,2.8,2.5,6.2h0c2.5,5.2,6.8,11.4,12.7,11.5h.1c4.9,0,8.4-4.2,10-12.2h0c.6-3.1.7-5.6.7-5.7,0-.4-.2-.8-.6-1h0ZM72.9,79.1c0,.8-.2,1.8-.4,2.9-3.4,2.8-7.5,3.7-12.3,2.7-3.1-.7-5.5-1.9-6.3-2.4-.5-1.1-.9-2.1-1.3-2.9,3.9,1.5,11.6,3.4,20.3-.3h0Z"/>
      <path class="cls-1" d="M18.4,74.7c6.2.6,7.8,7,7.9,7.3.1.5.6.9,1.1.9s.1,0,.2,0c.6-.1,1-.7,1-1.3-.7-5.1,3.8-9.6,3.8-9.6.4-.3.5-.9.3-1.3s-.7-.7-1.1-.7c-3.4.2-5.1-4.1-5.1-4.1-.2-.5-.7-.8-1.2-.8-.5,0-1,.5-1,1-.8,5.2-5.7,6.3-5.9,6.3-.6.1-1,.6-.9,1.2,0,.6.5,1.1,1.1,1.1h0ZM25.7,69.2c.8,1.1,2,2.2,3.6,2.8-.9,1.2-2.1,3.1-2.7,5.2-1-1.5-2.5-3-4.5-3.9,1.3-.8,2.7-2.1,3.6-4.1Z"/>
      <path class="cls-1" d="M86.8,52.5s1-7.5-1-11.9c-2.8-6.4-19.5-25.2-34.1-18.9-14.6,6.4,1.8,22.9,1.8,22.9l5.1-4.3,4.3-2.2,9.1-1.3,8.8,2.3,3.8,3,2.1,10.4h0Z"/>
      <path class="cls-1" d="M99.2,110.3c1.4-.2,3.3-.9,4.9-3,.2-.3.8-.2.8.2.2,1.3,1,3.4,3.1,4.5.4.2.4.7,0,.9-1.5.5-3.7,1.6-5.3,4.1-.2.4-.8.2-.9-.2-.2-1.6-.8-4-2.9-5.6-.3-.3-.2-.8.2-.8h0Z"/>
      <path class="cls-1" d="M154.1,34.4c-.1.1-.2.3-.3.6s-.2.5-.2.6c-.1.2-.2,1.2-.3,3.1s-.2,4.1-.2,6.8c-.1,2.6-.1,5.3-.1,8.1s.1,5.3.3,7.3c.2,1.7.6,3.4,1.4,5s2,2.7,3.7,3.1c1.3,0,2.5,0,3.7-.6,1.1-.5,2-1.4,2.6-2.5.6-1.4.9-2.8.8-4.3s0-3,.3-4.5c.8,0,1.8,0,2.8,0,1,0,2.1,0,3.1,0s2.1,0,3.1,0,2,.2,2.8.4c1,3.1,1.3,6.1.8,9.2s-1.5,5.8-3.1,8.2-3.7,4.4-6.3,6-5.5,2.4-8.8,2.4c-2.1.3-4.3.3-6.6,0s-4.4-.9-6.3-1.8c-1.9-.9-3.6-2.2-4.9-3.9-1.3-1.7-2.1-3.7-2.4-6.2-.1-2.1-.2-4.4-.3-6.7s-.1-4.9-.1-7.8v-9.8c0-3.7.1-7.9.1-12.7-.1-1-.1-2,.1-3.1.2-1,.5-2,.8-2.9.5-1.5,1.2-3,2-4.3s1.8-2.5,2.9-3.5c.6-.5,1.4-.9,2.1-1.2.8-.3,1.6-.6,2.4-.8,2.7-.9,5.4-1.2,8.1-1.1,2.7.2,5.2.8,7.5,1.8s4.5,2.4,6.4,4.1,3.4,3.7,4.5,5.9c1.1,2.2,1.8,4.6,2,7.2.2,2.6-.1,5.3-1.1,8-2.2.5-4.3.6-6.4.5s-4.3-.4-6.5-.8c-.2-1.1-.3-2.4-.3-3.8s-.2-2.7-.5-3.9c-.3-1.2-.8-2.2-1.6-3s-2.1-1.1-3.8-1.1c-.8.1-1.6.3-2.4.4-.6.7-1.3,1-1.8,1.5h0Z"/>
      <path class="cls-1" d="M221.5,70.5v.2c.1,1.9.1,3.9.1,5.9-.1,2-.3,3.9-.8,5.7-6,0-12.2,0-18.4.2s-12.2,0-18-.4c0-5.1-.1-10.3-.2-15.3s-.2-10.1-.3-15.1-.1-10.1,0-15.1.2-10.1.5-15.2c2.3-.1,4.8-.2,7.5-.3s5.4-.2,8.1-.2c2.7-.1,5.4-.1,7.9-.2s4.8-.1,6.8-.1,3.5,0,4.7.1,1.8.1,1.8.2c.3,2.1.4,4.2.2,6.3-.1,2.1-.2,4.2-.2,6.3h0c-1.9.5-3.8.8-5.7.9-1.9.1-3.9.1-5.8.1h-5.9c-2,0-3.9.1-5.9.3h-.4c.1,1.8,0,3.6-.2,5.4-.2,1.8-.1,3.5.3,5.1h.1c1.8.2,3.6.3,5.4.3s3.7,0,5.5,0h0c.3,2.1.4,4.1.3,6.1-.1,2-.1,4.1-.1,6.3-.9.2-1.9.4-3,.4h-3.2c-1,0-2,0-2.8,0s-1.4.2-1.7.4c-.3,1.7-.4,3.6-.3,5.8s.2,3.9.3,5.3h.1c3.9,0,7.8.2,11.6.4,3.7.1,7.6.1,11.7,0h0Z"/>
      <path class="cls-1" d="M268.9,82.3h0c-2,0-4.3,0-6.8.2-2.5,0-5.1,0-7.8,0h-.1c-.6-1.4-1.3-3-2.2-4.9s-1.9-3.9-2.9-5.9c-1.1-2.1-2.2-4.1-3.5-6.1-1.2-2-2.5-3.8-3.7-5.3l-.2-.3c-.2,1.4-.3,3-.3,5s0,4,.1,6.1.2,4.1.3,6,.2,3.4.3,4.5c-1,.4-2.3.7-4,.8-1.6,0-3.2.2-4.8.2h-4.3c-1.3,0-2.1,0-2.4,0,.1,0,.2-.8.3-2.4s.1-3.8.1-6.4v-20c0-3.7-.1-7.4-.2-11s-.2-7-.2-10c-.1-3.1-.1-5.7-.2-7.8-.1-2.2-.2-3.6-.3-4.4,3.3-.5,7-.9,10.9-1.3s8.1-.4,12.4.1c3.5.2,6.6,1.2,9.4,3,2.8,1.8,4.9,4.1,6.5,6.8,1.5,2.7,2.4,5.7,2.4,9,.1,3.3-.8,6.5-2.6,9.6-1.1,2.1-2.6,3.9-4.5,5.3s-4.2,2.2-7.1,2.4h-.4c1.2,2.3,2.6,4.5,4.1,6.6s2.9,4.3,4.4,6.5,2.8,4.4,4.1,6.7c1.2,2.2,2.3,4.6,3.2,7h0ZM238.9,32.9c.1.8.1,1.6.1,2.6v5.9c0,.9.1,1.8.2,2.4h.1c1.4,0,2.8.2,4.4.3s3.1,0,4.5-.3c1.1-.2,2-.8,2.6-1.7s1-1.9,1.1-3,0-2.2-.4-3.3c-.4-1.1-1-2-1.8-2.6-1.3-1.2-3-1.7-5-1.6s-3.7.5-5.8,1.3h0Z"/>
      <path class="cls-1" d="M307.9,29.9c.4.9.7,1.8.9,2.7.2.9.4,1.9.5,2.8.1,1.5.2,2.9.2,4.4v4.4c-.2,3.1-.2,6.2-.2,9.1.1,3,0,6-.3,9.1l-.3,2.9c-.1,2.1-.4,4.2-1,6.3-.5,2.1-1.3,4-2.4,5.7-1,1.4-2.3,2.6-4,3.4s-3.4,1.5-5.2,2c-1.7.5-3.3.8-5,.9s-3.4,0-5.1,0c-1.2,0-2.4-.3-3.6-.5s-2.2-.6-3.3-1-2-1.1-2.8-1.8-1.5-1.7-2-2.9c-.8-1.5-1.4-3.1-1.6-4.8s-.4-3.4-.5-5.1c-.2-4.6-.4-9.2-.6-13.9s-.2-9.3.1-14c.1-2.7.4-5.3,1-8s1.9-5.1,3.7-7.2c.6-.6,1.3-1.1,2-1.6,2-.9,4.1-1.6,6.4-2.1,2.3-.4,4.6-.6,6.8-.5s4.5.5,6.7,1.2,4.1,1.7,5.8,3c1.8,1.7,3,3.5,3.8,5.5h0ZM298.4,51.6l-.2-6c0,0,0-.7-.1-1.8-.1-1.2-.2-2.2-.2-3.2-.1-1.7-.6-3.2-1.4-4.5-.8-1.4-1.9-2.4-3.2-3-1.2-.5-2.4-.6-3.6-.3-1.2.3-2.3.8-3.3,1.5-2.1,1.6-3.5,3.6-4.2,6.1-.5,2.2-.8,4.6-.8,7.1s-.1,5,0,7.5c.3,2.1.5,4.2.6,6.4s.5,4.2,1.1,6.2c.6,1.2,1.5,2.1,2.6,2.8,1.1.6,2.3,1,3.6,1.1,1.3,0,2.6,0,3.9-.5s2.4-1.2,3.3-2.2c.5-.7.9-1.3,1.2-1.7s.4-.9.4-1.5c.1-.5.1-1.2,0-1.9s0-1.7.1-3c.1-1.2.1-2.2.1-3.1v-6h.1Z"/>
      <path class="cls-1" d="M180,114.3v1.3c0,.4,0,.8-.1,1.1-.4,2.8-1.3,5.4-2.8,7.8s-3.4,4.4-5.6,6c-2.2,1.7-4.7,2.9-7.5,3.6s-5.5.9-8.4.4c.1.8.1,1.6.1,2.4v9.6c0,2.6.1,6,.2,10.3h-.1c0,.1-.1.1-.1.1-.8.2-1.9.4-3.1.5-1.3.1-2.6.1-4,.2s-2.8,0-4.1,0c-1.4-.1-2.6-.1-3.6-.3-.2-4.3-.3-9-.3-14.1v-31.7c0-5.4-.2-10.4-.3-15.3,2.4-.6,5.1-1.1,7.9-1.4s5.7-.3,8.6,0c2.9.2,5.7.8,8.4,1.6s5.1,2,7.2,3.6,3.8,3.5,5.2,5.9c1.4,2.3,2.2,5.1,2.4,8.5h0ZM164.4,110.6c-1.5-1.2-3.2-1.9-5.1-2.3-1.9-.3-3.9-.2-5.8.2-.1,0-.2,0-.3,0,.1,1.1.1,2.2,0,3.4v3.6c0,1.2.1,2.3.2,3.4.1,1.1.3,2.1.6,3h.3c.9,0,2,0,3,0s2.1,0,3.1-.2,2-.3,3-.7c1-.3,1.8-.8,2.5-1.6.5-.6.8-1.4,1-2.2s.2-1.7.1-2.5c-.1-.8-.4-1.6-.9-2.3s-.9-1.3-1.7-1.8h0Z"/>
      <path class="cls-1" d="M209.1,126.8l6.7,31.1h0c-1.8.5-3.7.6-5.9.5s-4.1-.3-6-.8h-.1c-.4-1-.7-2.1-1-3.4-.3-1.3-.6-2.6-1-4-.3-1.4-.7-2.7-1-3.9-.4-1.2-.7-2.3-1.2-3.2-.8-.1-1.4-.2-1.8-.2h-3.8c-.4.9-.8,2.1-1,3.3-.3,1.3-.5,2.6-.8,4s-.6,2.7-.8,4c-.3,1.3-.7,2.5-1.2,3.5h-.2c-.5.1-1.7.1-3.6,0-1.9-.1-4.9-.1-8.9-.1s-.1,0-.2-.1c.1-.4.3-1.6.6-3.5s.7-4.4,1.2-7.4,1.2-6.5,1.9-10.4,1.6-8.1,2.6-12.6c1-4.4,2.1-9.1,3.3-13.9s2.5-9.6,3.9-14.3c.4,0,.9,0,1.3,0h4.9c1.2,0,2.8,0,4.8-.3.2.8.5,1.9.8,3.5.4,1.6.8,3.4,1.2,5.3.4,2,.9,4.1,1.4,6.4s1,4.4,1.5,6.5.9,4,1.3,5.7.9,3.3,1.1,4.4h0ZM200,132.5c-.6-5.1-1.1-9.1-1.6-11.9s-.8-4.8-1.1-5.8-.6-1.2-1-.7-.6,1.7-.9,3.4-.6,3.9-.9,6.5c-.3,2.6-.7,5.4-1.1,8.4,1,0,2.1,0,3.2,0,1.2.2,2.3,0,3.4,0h0Z"/>
      <path class="cls-1" d="M249.8,96.2c.1,1.9.2,4.2.1,6.8,0,2.6-.2,4.9-.5,7-1.1-.2-2.5-.3-4.2-.3-1.7,0-3.9,0-6.7.3h-.3v.2c-.1.3-.1.8-.1,1.4v8.1c0,2.1.1,4.9.1,8.4.1,3.4.1,7.5.2,12.3.1,4.8.1,10.4.3,16.8v.2c-1.1.2-2.2.3-3.5.3h-7.6c-1.2,0-2.4.1-3.5.3-.1-.2-.1-1.3,0-3.2s.1-4.7.1-8.5,0-8.6-.1-14.4c-.1-5.9-.3-12.9-.7-21.2h-.1c-.7-.5-1.6-.7-2.7-.8-1.1,0-2.1,0-3.2-.2h-2.9c-.9,0-1.5,0-1.9-.2-.1-.2-.2-.8-.3-1.8s-.1-2.1-.2-3.4,0-2.8,0-4.3.1-3,.2-4.4h0v-.2c6,0,12.3,0,18.7,0,6.4-.1,12.7.2,18.8.9h0Z"/>
      <path class="cls-1" d="M278.9,126.8l6.7,31.1h0c-1.8.5-3.7.6-5.9.5s-4.1-.3-6-.8h-.1c-.4-1-.7-2.1-1-3.4-.3-1.3-.6-2.6-1-4-.3-1.4-.7-2.7-1-3.9-.4-1.2-.7-2.3-1.2-3.2-.8-.1-1.4-.2-1.8-.2h-3.7c-.4.9-.8,2.1-1,3.3-.3,1.3-.5,2.6-.8,4s-.5,2.7-.8,4-.7,2.5-1.2,3.5h-.2c-.5.1-1.7.1-3.5,0-1.9-.1-4.9-.1-8.9-.1s-.1,0-.2-.1c.1-.4.3-1.6.6-3.5s.7-4.4,1.2-7.4,1.2-6.5,1.9-10.4,1.6-8.1,2.6-12.6c1-4.4,2.1-9.1,3.3-13.9s2.5-9.6,3.9-14.3c.4,0,.9,0,1.3,0h4.9c1.2,0,2.8,0,4.8-.3.2.8.5,1.9.8,3.5.4,1.6.8,3.4,1.2,5.3.4,2,.9,4.1,1.4,6.4s1,4.4,1.5,6.5.9,4,1.3,5.7c.4,2,.7,3.3.9,4.4h0ZM269.9,132.5c-.6-5.1-1.1-9.1-1.5-11.9s-.8-4.8-1.1-5.8c-.3-1-.6-1.2-1-.7-.3.6-.6,1.7-.9,3.4-.3,1.7-.6,3.9-.9,6.5-.3,2.6-.7,5.4-1.1,8.4,1,0,2.1,0,3.2,0,1,.2,2.1,0,3.3,0h0Z"/>
      <path class="cls-1" d="M319.6,96.2c.1,1.9.2,4.2.1,6.8,0,2.6-.2,4.9-.5,7-1.1-.2-2.5-.3-4.2-.3-1.7,0-3.9,0-6.7.3h-.3v.2c-.1.3-.1.8-.1,1.4v8.1c0,2.1.1,4.9.1,8.4.1,3.4.1,7.5.2,12.3s.1,10.4.3,16.8v.2c-1.1.2-2.2.3-3.5.3h-7.6c-1.2,0-2.4.1-3.5.3-.1-.2-.1-1.3,0-3.2s.1-4.7.1-8.5,0-8.6-.1-14.4c-.1-5.9-.3-12.9-.7-21.2h-.1c-.7-.5-1.6-.7-2.7-.8s-2.1,0-3.2-.2-2,0-2.9,0-1.5,0-1.9-.2c-.1-.2-.2-.8-.3-1.8s-.1-2.1-.2-3.4,0-2.8,0-4.3.1-3,.2-4.4h0v-.2c6,0,12.3,0,18.7,0,6.4-.1,12.7.2,18.8.9h0Z"/>
      <path class="cls-1" d="M361.7,145.9v.2c.1,1.9.1,3.9.1,5.9-.1,2-.3,3.9-.8,5.7-6-.1-12.2,0-18.4.2-6.2.2-12.2.1-18-.4,0-5.1-.1-10.3-.2-15.3-.1-5.1-.2-10.1-.3-15.1-.1-5-.1-10.1,0-15.1s.2-10.1.5-15.2c2.3,0,4.8-.2,7.5-.3,2.7,0,5.4-.2,8.1-.2,2.7,0,5.4,0,7.9-.2s4.8,0,6.8,0,3.5,0,4.7,0,1.8,0,1.8.2c.3,2.1.4,4.2.2,6.3-.1,2.1-.2,4.2-.2,6.3h0c-1.9.5-3.8.8-5.7.9-1.9,0-3.9,0-5.8,0h-5.9c-2,0-3.9,0-5.9.3h-.4c.1,1.8,0,3.6-.2,5.4s-.1,3.5.3,5.1h.1c1.8.2,3.6.3,5.4.3s3.7,0,5.5,0h0c.3,2.1.4,4.1.3,6.1s-.1,4.1-.1,6.3c-.9.2-1.9.4-3,.4h-3.2c-1,0-2,0-2.8,0s-1.4.2-1.7.4c-.3,1.7-.4,3.6-.3,5.8s.2,3.9.3,5.3h.1c3.9.1,7.8.2,11.5.4,3.9,0,7.8,0,11.8,0h0Z"/>
      <path class="cls-1" d="M409.1,157.7h0c-2,0-4.3.1-6.8.2-2.5.1-5.1.1-7.8,0h-.1c-.6-1.4-1.3-3-2.2-4.9-.9-1.9-1.9-3.9-2.9-5.9-1.1-2.1-2.2-4.1-3.5-6.1-1.2-2-2.5-3.8-3.7-5.3l-.2-.3c-.2,1.4-.3,3-.3,5s0,4,.1,6.1.2,4.1.3,6,.2,3.4.3,4.5c-1,.4-2.3.7-4,.8-1.6.1-3.2.2-4.8.2h-4.3c-1.3-.1-2.1-.1-2.4,0,.1,0,.2-.8.3-2.4s.1-3.8.1-6.4v-20c0-3.7-.1-7.4-.2-11s-.2-7-.2-10c-.1-3.1-.1-5.7-.2-7.8s-.2-3.6-.3-4.4c3.3-.5,7-.9,10.9-1.3s8.1-.4,12.4,0c3.5.2,6.6,1.2,9.4,3s4.9,4.1,6.5,6.8c1.5,2.7,2.4,5.7,2.4,9,.1,3.3-.8,6.5-2.6,9.6-1.1,2.1-2.6,3.9-4.5,5.3s-4.2,2.2-7.1,2.4h-.3c1.2,2.3,2.6,4.5,4.1,6.6s2.9,4.3,4.4,6.5,2.8,4.4,4.1,6.7c1.2,2.2,2.3,4.6,3.1,7h0ZM379.2,108.3c.1.8.1,1.6.1,2.6v5.9c0,.9.1,1.8.2,2.4h.1c1.4,0,2.8.2,4.4.3s3.1,0,4.5-.3c1.1-.2,2-.8,2.6-1.7s1-1.9,1.1-3,0-2.2-.4-3.3c-.4-1.1-1-2-1.8-2.6-1.3-1.2-3-1.7-5-1.6s-3.7.5-5.8,1.3h0Z"/>
      <path class="cls-1" d="M448.1,105.4c.4.9.7,1.8.9,2.7.2.9.4,1.9.5,2.8.1,1.5.2,2.9.2,4.4v4.4c-.2,3.1-.2,6.2-.2,9.1.1,3,0,6-.3,9.1l-.3,2.9c-.1,2.1-.4,4.2-1,6.3-.5,2.1-1.3,4-2.4,5.7-1,1.4-2.3,2.6-4,3.4s-3.4,1.5-5.2,2c-1.7.5-3.3.8-5,.9-1.7.1-3.4.1-5.1,0-1.2-.1-2.4-.3-3.6-.5s-2.2-.5-3.3-1-2-1.1-2.8-1.8-1.5-1.7-2-2.9c-.8-1.5-1.4-3.1-1.6-4.8s-.4-3.4-.5-5.1c-.2-4.6-.4-9.2-.6-13.9s-.2-9.3.1-14c.1-2.7.4-5.3,1-8s1.9-5.1,3.7-7.1c.6-.6,1.3-1.1,2-1.6,2-.9,4.1-1.6,6.4-2.1,2.3-.4,4.6-.6,6.8-.5s4.5.5,6.7,1.2,4.1,1.7,5.8,3c1.9,1.5,3.1,3.3,3.8,5.4h0ZM438.6,127l-.2-6c0,0,0-.7-.1-1.8-.1-1.2-.2-2.2-.2-3.2-.1-1.7-.6-3.2-1.4-4.5-.8-1.4-1.9-2.4-3.2-3-1.2-.5-2.4-.6-3.6-.3-1.2.3-2.3.8-3.3,1.5-2.1,1.6-3.5,3.6-4.2,6.1-.5,2.2-.8,4.6-.8,7.1s-.1,5,0,7.5c.3,2.1.5,4.2.6,6.4.1,2.2.5,4.2,1.1,6.2.6,1.2,1.5,2.1,2.6,2.8,1.1.6,2.3,1,3.6,1.1,1.3.1,2.6-.1,3.9-.5s2.4-1.2,3.3-2.2c.5-.7.9-1.3,1.2-1.7s.4-.9.4-1.5c.1-.5.1-1.2,0-1.9s0-1.7.1-3c.1-1.2.1-2.2.1-3.1v-6h.1Z"/>
    </g>
  </g>
</svg>