<?xml version="1.0" encoding="UTF-8"?><svg id="Capa_2" xmlns="http://www.w3.org/2000/svg" viewBox="0 0 468.54 175.93"><defs><style>.cls-1{font-family:LondrinaSolid-Regular, 'Londrina Solid';font-size:88.83px;}.cls-1,.cls-2{fill:#fff;}.cls-3{letter-spacing:0em;}.cls-4{letter-spacing:-.04em;}.cls-5{letter-spacing:-.05em;}.cls-6{letter-spacing:-.05em;}</style></defs><text class="cls-1" transform="translate(137.13 83.26)"><tspan x="0" y="0">CERO </tspan><tspan class="cls-6" x="0" y="75.41">P</tspan><tspan class="cls-5" x="39.97" y="75.41">A</tspan><tspan class="cls-4" x="74.44" y="75.41">T</tspan><tspan class="cls-5" x="109.79" y="75.41">A</tspan><tspan class="cls-3" x="144.26" y="75.41">TERO</tspan></text><path class="cls-2" d="M51.37,58.07c.16.08.34.12.51.12.44,0,.86-.25,1.07-.66.06-.13,1.57-3.08,5.82-2.71.65.06,1.23-.43,1.28-1.08.06-.65-.43-1.23-1.08-1.28-5.93-.51-8.07,3.87-8.16,4.05-.28.59-.03,1.29.56,1.57Z"/><path class="cls-2" d="M78.45,55.71c-1.97.48-3.47.37-4.46-.32-1.08-.76-1.24-2.05-1.24-2.09-.06-.65-.63-1.13-1.28-1.07-.65.06-1.13.63-1.08,1.28,0,.1.23,2.37,2.2,3.78,1,.71,2.23,1.07,3.68,1.07.84,0,1.76-.12,2.74-.36.64-.15,1.02-.8.87-1.43-.15-.64-.8-1.02-1.43-.87Z"/><path class="cls-2" d="M58.2,58.86c-1.14-.65-2.58-.25-3.23.88-2.25,3.94-1.88,9.81-1.83,10.46.09,1.24,1.13,2.19,2.36,2.19.06,0,.12,0,.18,0,1.3-.1,2.28-1.24,2.18-2.54-.1-1.38-.09-5.46,1.22-7.76.65-1.14.25-2.58-.88-3.23Z"/><path class="cls-2" d="M69.65,73.15h.01c1.31,0,2.36-1.07,2.36-2.38,0-1.3.27-5.18,1.61-7.52.65-1.14.25-2.58-.88-3.23-1.14-.65-2.58-.25-3.23.88-2.25,3.94-2.24,9.65-2.24,9.9,0,1.3,1.07,2.35,2.37,2.35Z"/><path class="cls-2" d="M74.94,76.18c-.35-.22-.8-.25-1.18-.05-11.89,6.08-22.13.29-22.56.04-.42-.24-.94-.21-1.32.09-.38.3-.54.8-.41,1.26,0,.03.84,2.8,2.49,6.16,0,0,0,0,0,0,2.53,5.19,6.8,11.39,12.72,11.47.04,0,.07,0,.11,0,4.91,0,8.36-4.22,9.97-12.2,0,0,0,0,0,0,0,0,0,0,0,0,0,0,0,0,0,0h0c.63-3.11.73-5.61.73-5.72.02-.42-.19-.82-.55-1.04ZM72.95,79.12c-.09.82-.23,1.84-.45,2.95-3.36,2.78-7.48,3.67-12.26,2.66-3.1-.66-5.53-1.95-6.32-2.41-.51-1.06-.93-2.05-1.26-2.89,3.89,1.49,11.59,3.37,20.28-.31Z"/><path class="cls-2" d="M18.41,74.73c6.17.61,7.81,7.02,7.87,7.29.13.54.61.91,1.15.91.07,0,.15,0,.22-.02.62-.12,1.04-.7.95-1.33-.73-5.09,3.8-9.56,3.84-9.6.36-.34.46-.87.26-1.32-.2-.45-.65-.74-1.15-.71-3.39.16-5.06-4.09-5.07-4.13-.19-.51-.68-.82-1.23-.77-.54.05-.97.47-1.05,1-.79,5.18-5.71,6.3-5.93,6.35-.57.12-.97.64-.94,1.22.03.58.48,1.06,1.07,1.12ZM25.73,69.21c.82,1.09,2,2.23,3.61,2.78-.93,1.23-2.07,3.06-2.7,5.24-1-1.47-2.46-2.99-4.54-3.94,1.31-.84,2.72-2.13,3.63-4.08Z"/><path class="cls-2" d="M116.81,53.63c3.36-.45,6.25-3.27,7.5-4.68.4-.45.21-1.17-.37-1.34-3.49-1.07-9.72,2.83-9.72,2.83.36-.86,3.67-8.35,1.08-9.03-2.64-.69-6.74,8.03-6.74,8.03-3.23-6.17-5.9-4.07-5.9-4.07-1.1.2.7,9.99.7,9.99-6.02,12.04-14.02,17.91-17.22,19.89-.49-5.54-.43-11.14.5-15.4.08-.39.16-.77.23-1.16,1.23-1.05,4.84-4.35,7.53-8.93,4.41-7.52,4.15-14.75-.77-20.92-3.84-4.82-8.15-7.46-12.79-7.84-4.95-.41-8.85,1.89-10.53,3.1-5.5-3.34-12.63-5.74-19.72-2.65-3.87,1.69-6.15,4.21-6.77,7.49-1.25,6.57,4.78,14.1,7.2,16.8-2.66,3.02-4.73,6.3-6.25,9.11-3.05,5.66-4.49,10.48-4.63,10.94-2.78,8.45-2.72,15.71-1.39,21.64-2.74,3.33-7.96,14.71-10.47,20.37-.79,1.77-2.54,2.94-4.48,2.92-3.87-.04-7.38,1.21-7.63,2.55-.31,1.68,8.64,1.14,6.59,1.84s-6.13,4.44-5.59,7.35c.54,2.91,8.34-4.33,8.34-4.33,0,0-5.25,5.86-2.75,8.51,2.51,2.66,5.85-6.03,5.85-6.03,1.37,3,3.21,5.86,4.66,5.71,1.32-.14,2.19-1.46,1.8-2.73-.63-2.06-1.65-5.42-2.36-7.62-1.22-3.81,5.29-17.99,7.72-23.08.86,2.17,1.86,4.1,2.87,5.75,2.83,4.62,7.09,8.34,12.13,10.65-1.36,5.35-5.59,24.38-.81,37.51-2.28.01-5.16.19-7.63.83-2.32.6-6.43,1.99-7.89,4.52-.5.86-.63,1.79-.39,2.69.26.95,1.27,1.71,3.08,2.31,1.97.65,4.77,1.08,7.68,1.08,3.9,0,8.01-.76,10.57-2.76.07-.06.14-.12.2-.19.1-.12,2.14-2.77-.02-6.73-.57-2.91-4.71-25.2.9-37.19,3.51,1.02,6.77,1.53,9.77,1.53,1.91,0,3.71-.21,5.41-.62-.21,4.29-.27,23.08,13.72,30.31-.09.09-.17.2-.23.32-1.17,2.49-4.84,10.81-2.71,13.56.94,1.22,2.37,1.89,3.95,1.89.37,0,.75-.04,1.13-.11,1.92-.38,6.68-2.33,9.46-12.34.67-2.41-.07-4.93-1.93-6.59-1.84-1.64-4.4-2.08-6.68-1.16l-.26.11s-.07.04-.11.06c-3.5-2.7-11.91-11-11.19-28.11.98-.57,1.9-1.23,2.78-1.99,4.98-4.28,6.85-11.26,4.76-17.78-.82-2.55-1.54-5.7-2.08-9.08,6.1-.38,20.88-22.87,21.44-22.62.57.25,15.54,1.77,16.34,0,1.28-2.82-7.89-5.09-7.89-5.09ZM80.63,23.94c3.79.32,7.39,2.59,10.69,6.73,4.13,5.18,4.33,11.07.57,17.51-1.28,2.2-2.83,4.1-4.17,5.55.09-.75.93-8.04-1.12-12.67-1.62-3.67-6.76-10.1-13.08-14.81-.17-.13-.35-.26-.53-.39,1.64-.98,4.39-2.2,7.64-1.92ZM46.72,29.48c.44-2.29,2.09-4.04,5.05-5.33,7.27-3.17,14.88.69,19.98,4.48,4.78,3.56,8.57,7.93,10.68,11.08-.8-.57-1.67-1.06-2.61-1.43-7.07-2.8-13.73-2.7-19.78.28-2.62,1.29-4.94,3.05-6.98,5.02-2.22-2.53-7.32-8.99-6.34-14.1ZM82.29,105.95c-5.54,4.76-13.59,5.21-23.94,1.35-5.25-1.96-9.69-5.58-12.53-10.21-3.82-6.25-7.42-16.59-2.87-30.41l.02-.05c.05-.19,5.65-19.16,18.39-25.42,2.69-1.32,5.54-1.99,8.51-1.99s5.8.6,8.86,1.81c3.12,1.23,5.31,4.06,5.71,7.37.39,3.23.16,6.86-.7,10.8-1.96,9.03-.27,23.7,2.42,32.11,1.72,5.39.2,11.13-3.88,14.63Z"/><path class="cls-2" d="M86.79,52.48s.97-7.47-1-11.93c-2.82-6.38-19.45-25.25-34.07-18.87-14.62,6.38,1.84,22.92,1.84,22.92l5.12-4.34,4.32-2.24,9.12-1.32,8.76,2.34,3.78,3,2.14,10.44Z"/><path class="cls-2" d="M51.37,58.07c.16.08.34.12.51.12.44,0,.86-.25,1.07-.66.06-.13,1.57-3.08,5.82-2.71.65.06,1.23-.43,1.28-1.08.06-.65-.43-1.23-1.08-1.28-5.93-.51-8.07,3.87-8.16,4.05-.28.59-.03,1.29.56,1.57Z"/><path class="cls-2" d="M78.45,55.71c-1.97.48-3.47.37-4.46-.32-1.08-.76-1.24-2.05-1.24-2.09-.06-.65-.63-1.13-1.28-1.07-.65.06-1.13.63-1.08,1.28,0,.1.23,2.37,2.2,3.78,1,.71,2.23,1.07,3.68,1.07.84,0,1.76-.12,2.74-.36.64-.15,1.02-.8.87-1.43-.15-.64-.8-1.02-1.43-.87Z"/><path class="cls-2" d="M58.2,58.86c-1.14-.65-2.58-.25-3.23.88-2.25,3.94-1.88,9.81-1.83,10.46.09,1.24,1.13,2.19,2.36,2.19.06,0,.12,0,.18,0,1.3-.1,2.28-1.24,2.18-2.54-.1-1.38-.09-5.46,1.22-7.76.65-1.14.25-2.58-.88-3.23Z"/><path class="cls-2" d="M69.65,73.15h.01c1.31,0,2.36-1.07,2.36-2.38,0-1.3.27-5.18,1.61-7.52.65-1.14.25-2.58-.88-3.23-1.14-.65-2.58-.25-3.23.88-2.25,3.94-2.24,9.65-2.24,9.9,0,1.3,1.07,2.35,2.37,2.35Z"/><path class="cls-2" d="M74.94,76.18c-.35-.22-.8-.25-1.18-.05-11.89,6.08-22.13.29-22.56.04-.42-.24-.94-.21-1.32.09-.38.3-.54.8-.41,1.26,0,.03.84,2.8,2.49,6.16,0,0,0,0,0,0,2.53,5.19,6.8,11.39,12.72,11.47.04,0,.07,0,.11,0,4.91,0,8.36-4.22,9.97-12.2,0,0,0,0,0,0,0,0,0,0,0,0,0,0,0,0,0,0h0c.63-3.11.73-5.61.73-5.72.02-.42-.19-.82-.55-1.04ZM72.95,79.12c-.09.82-.23,1.84-.45,2.95-3.36,2.78-7.48,3.67-12.26,2.66-3.1-.66-5.53-1.95-6.32-2.41-.51-1.06-.93-2.05-1.26-2.89,3.89,1.49,11.59,3.37,20.28-.31Z"/><path class="cls-2" d="M18.41,74.73c6.17.61,7.81,7.02,7.87,7.29.13.54.61.91,1.15.91.07,0,.15,0,.22-.02.62-.12,1.04-.7.95-1.33-.73-5.09,3.8-9.56,3.84-9.6.36-.34.46-.87.26-1.32-.2-.45-.65-.74-1.15-.71-3.39.16-5.06-4.09-5.07-4.13-.19-.51-.68-.82-1.23-.77-.54.05-.97.47-1.05,1-.79,5.18-5.71,6.3-5.93,6.35-.57.12-.97.64-.94,1.22.03.58.48,1.06,1.07,1.12ZM25.73,69.21c.82,1.09,2,2.23,3.61,2.78-.93,1.23-2.07,3.06-2.7,5.24-1-1.47-2.46-2.99-4.54-3.94,1.31-.84,2.72-2.13,3.63-4.08Z"/><path class="cls-2" d="M86.79,52.48s.97-7.47-1-11.93c-2.82-6.38-19.45-25.25-34.07-18.87-14.62,6.38,1.84,22.92,1.84,22.92l5.12-4.34,4.32-2.24,9.12-1.32,8.76,2.34,3.78,3,2.14,10.44Z"/><path class="cls-2" d="M99.24,110.27c1.36-.19,3.3-.86,4.93-2.96.25-.32.76-.22.83.18.25,1.33.98,3.41,3.14,4.5.38.19.36.74-.04.87-1.46.46-3.66,1.55-5.34,4.05-.25.38-.82.25-.87-.21-.15-1.62-.75-4.03-2.86-5.59-.35-.26-.22-.79.21-.85Z"/></svg>