<?xml version="1.0" encoding="UTF-8"?><svg id="Capa_2" xmlns="http://www.w3.org/2000/svg" xmlns:xlink="http://www.w3.org/1999/xlink" viewBox="0 0 527.41 382.82"><defs><style>.cls-1{fill:none;}.cls-2{fill:url(#_10_ppp_20_3);}.cls-3{fill:url(#_10_ppp_40_2);}.cls-4{fill:#942d13;}.cls-5{fill:url(#_10_ppp_40_);}.cls-6{fill:#244ba5;}.cls-7{fill:#244ba5;}</style><pattern id="_10_ppp_40_" x="0" y="0" width="28.8" height="28.8" patternTransform="translate(-8341.64 -5666.13) scale(.26)" patternUnits="userSpaceOnUse" viewBox="0 0 28.8 28.8"><rect class="cls-1" width="28.8" height="28.8"/><path class="cls-4" d="M28.8,31.68c1.59,0,2.88-1.29,2.88-2.88s-1.29-2.88-2.88-2.88-2.88,1.29-2.88,2.88,1.29,2.88,2.88,2.88Z"/><path class="cls-4" d="M14.4,31.68c1.59,0,2.88-1.29,2.88-2.88s-1.29-2.88-2.88-2.88-2.88,1.29-2.88,2.88,1.29,2.88,2.88,2.88Z"/><path class="cls-4" d="M28.8,17.28c1.59,0,2.88-1.29,2.88-2.88s-1.29-2.88-2.88-2.88-2.88,1.29-2.88,2.88,1.29,2.88,2.88,2.88Z"/><path class="cls-4" d="M14.4,17.28c1.59,0,2.88-1.29,2.88-2.88s-1.29-2.88-2.88-2.88-2.88,1.29-2.88,2.88,1.29,2.88,2.88,2.88Z"/><path class="cls-4" d="M7.2,24.48c1.59,0,2.88-1.29,2.88-2.88s-1.29-2.88-2.88-2.88-2.88,1.29-2.88,2.88,1.29,2.88,2.88,2.88Z"/><path class="cls-4" d="M21.6,24.48c1.59,0,2.88-1.29,2.88-2.88s-1.29-2.88-2.88-2.88-2.88,1.29-2.88,2.88,1.29,2.88,2.88,2.88Z"/><path class="cls-4" d="M7.2,10.08c1.59,0,2.88-1.29,2.88-2.88s-1.29-2.88-2.88-2.88-2.88,1.29-2.88,2.88,1.29,2.88,2.88,2.88Z"/><path class="cls-4" d="M21.6,10.08c1.59,0,2.88-1.29,2.88-2.88s-1.29-2.88-2.88-2.88-2.88,1.29-2.88,2.88,1.29,2.88,2.88,2.88Z"/><path class="cls-4" d="M0,31.68c1.59,0,2.88-1.29,2.88-2.88S1.59,25.92,0,25.92s-2.88,1.29-2.88,2.88S-1.59,31.68,0,31.68Z"/><path class="cls-4" d="M0,17.28c1.59,0,2.88-1.29,2.88-2.88S1.59,11.52,0,11.52s-2.88,1.29-2.88,2.88S-1.59,17.28,0,17.28Z"/><path class="cls-4" d="M28.8,2.88C30.39,2.88,31.68,1.59,31.68,0s-1.29-2.88-2.88-2.88S25.92-1.59,25.92,0s1.29,2.88,2.88,2.88Z"/><path class="cls-4" d="M14.4,2.88C15.99,2.88,17.28,1.59,17.28,0s-1.29-2.88-2.88-2.88S11.52-1.59,11.52,0s1.29,2.88,2.88,2.88Z"/><path class="cls-4" d="M0,2.88C1.59,2.88,2.88,1.59,2.88,0S1.59-2.88,0-2.88-2.88-1.59-2.88,0-1.59,2.88,0,2.88Z"/></pattern><pattern id="_10_ppp_20_3" x="0" y="0" width="28.8" height="28.8" patternTransform="translate(-8644.28 -5932.75) scale(.23)" patternUnits="userSpaceOnUse" viewBox="0 0 28.8 28.8"><rect class="cls-1" y="0" width="28.8" height="28.8"/><path class="cls-6" d="M28.8,30.24c.8,0,1.44-.64,1.44-1.44s-.64-1.44-1.44-1.44-1.44.64-1.44,1.44.64,1.44,1.44,1.44Z"/><path class="cls-6" d="M14.4,30.24c.8,0,1.44-.64,1.44-1.44s-.65-1.44-1.44-1.44-1.44.64-1.44,1.44.64,1.44,1.44,1.44Z"/><path class="cls-6" d="M28.8,15.84c.8,0,1.44-.65,1.44-1.44s-.64-1.44-1.44-1.44-1.44.64-1.44,1.44.64,1.44,1.44,1.44Z"/><path class="cls-6" d="M14.4,15.84c.8,0,1.44-.65,1.44-1.44s-.65-1.44-1.44-1.44-1.44.64-1.44,1.44.64,1.44,1.44,1.44Z"/><path class="cls-6" d="M7.2,23.04c.79,0,1.44-.64,1.44-1.44s-.65-1.44-1.44-1.44-1.44.64-1.44,1.44.64,1.44,1.44,1.44Z"/><path class="cls-6" d="M21.6,23.04c.79,0,1.44-.64,1.44-1.44s-.65-1.44-1.44-1.44-1.44.64-1.44,1.44.64,1.44,1.44,1.44Z"/><path class="cls-6" d="M7.2,8.64c.79,0,1.44-.64,1.44-1.44s-.65-1.44-1.44-1.44-1.44.64-1.44,1.44.64,1.44,1.44,1.44Z"/><path class="cls-6" d="M21.6,8.64c.79,0,1.44-.64,1.44-1.44s-.65-1.44-1.44-1.44-1.44.64-1.44,1.44.64,1.44,1.44,1.44Z"/><path class="cls-6" d="M0,30.24c.8,0,1.44-.64,1.44-1.44S.79,27.36,0,27.36s-1.44.64-1.44,1.44S-.8,30.24,0,30.24Z"/><path class="cls-6" d="M0,15.84c.8,0,1.44-.65,1.44-1.44S.79,12.96,0,12.96s-1.44.64-1.44,1.44S-.8,15.84,0,15.84Z"/><path class="cls-6" d="M28.8,1.44c.8,0,1.44-.64,1.44-1.44s-.64-1.44-1.44-1.44S27.36-.79,27.36,0s.64,1.44,1.44,1.44Z"/><path class="cls-6" d="M14.4,1.44C15.19,1.44,15.84.8,15.84,0s-.65-1.44-1.44-1.44S12.96-.79,12.96,0s.64,1.44,1.44,1.44Z"/><path class="cls-6" d="M0,1.44C.79,1.44,1.44.8,1.44,0S.79-1.44,0-1.44-1.44-.79-1.44,0-.8,1.44,0,1.44Z"/></pattern><pattern id="_10_ppp_40_2" x="0" y="0" width="28.8" height="28.8" patternTransform="translate(-8341.64 -5666.13) scale(.26)" patternUnits="userSpaceOnUse" viewBox="0 0 28.8 28.8"><rect class="cls-1" x="0" y="0" width="28.8" height="28.8"/><path class="cls-6" d="M28.8,31.68c1.59,0,2.88-1.29,2.88-2.88s-1.29-2.88-2.88-2.88-2.88,1.29-2.88,2.88,1.29,2.88,2.88,2.88Z"/><path class="cls-6" d="M14.4,31.68c1.59,0,2.88-1.29,2.88-2.88s-1.29-2.88-2.88-2.88-2.88,1.29-2.88,2.88,1.29,2.88,2.88,2.88Z"/><path class="cls-6" d="M28.8,17.28c1.59,0,2.88-1.29,2.88-2.88s-1.29-2.88-2.88-2.88-2.88,1.29-2.88,2.88,1.29,2.88,2.88,2.88Z"/><path class="cls-6" d="M14.4,17.28c1.59,0,2.88-1.29,2.88-2.88s-1.29-2.88-2.88-2.88-2.88,1.29-2.88,2.88,1.29,2.88,2.88,2.88Z"/><path class="cls-6" d="M7.2,24.48c1.59,0,2.88-1.29,2.88-2.88s-1.29-2.88-2.88-2.88-2.88,1.29-2.88,2.88,1.29,2.88,2.88,2.88Z"/><path class="cls-6" d="M21.6,24.48c1.59,0,2.88-1.29,2.88-2.88s-1.29-2.88-2.88-2.88-2.88,1.29-2.88,2.88,1.29,2.88,2.88,2.88Z"/><path class="cls-6" d="M7.2,10.08c1.59,0,2.88-1.29,2.88-2.88s-1.29-2.88-2.88-2.88-2.88,1.29-2.88,2.88,1.29,2.88,2.88,2.88Z"/><path class="cls-6" d="M21.6,10.08c1.59,0,2.88-1.29,2.88-2.88s-1.29-2.88-2.88-2.88-2.88,1.29-2.88,2.88,1.29,2.88,2.88,2.88Z"/><path class="cls-6" d="M0,31.68c1.59,0,2.88-1.29,2.88-2.88S1.59,25.92,0,25.92s-2.88,1.29-2.88,2.88S-1.59,31.68,0,31.68Z"/><path class="cls-6" d="M0,17.28c1.59,0,2.88-1.29,2.88-2.88S1.59,11.52,0,11.52s-2.88,1.29-2.88,2.88S-1.59,17.28,0,17.28Z"/><path class="cls-6" d="M28.8,2.88c1.59,0,2.88-1.29,2.88-2.88s-1.29-2.88-2.88-2.88S25.92-1.59,25.92,0s1.29,2.88,2.88,2.88Z"/><path class="cls-6" d="M14.4,2.88C15.99,2.88,17.28,1.59,17.28,0s-1.29-2.88-2.88-2.88S11.52-1.59,11.52,0s1.29,2.88,2.88,2.88Z"/><path class="cls-6" d="M0,2.88C1.59,2.88,2.88,1.59,2.88,0S1.59-2.88,0-2.88-2.88-1.59-2.88,0-1.59,2.88,0,2.88Z"/></pattern></defs><path class="cls-7" d="M183.71,134.56c-.12.12-.22.31-.31.58-.09.27-.16.46-.22.58-.12.18-.22,1.21-.31,3.11-.09,1.9-.16,4.15-.22,6.75-.06,2.61-.09,5.32-.09,8.13s.09,5.26.27,7.33c.18,1.72.64,3.39,1.38,5.02.74,1.63,1.97,2.68,3.69,3.15,1.3.12,2.53-.07,3.69-.58,1.15-.5,2.03-1.35,2.62-2.53.65-1.36.93-2.8.84-4.31s.01-3,.31-4.49c.83.12,1.76.15,2.8.09,1.04-.06,2.09-.09,3.15-.09s2.12.03,3.15.09c1.04.06,1.97.21,2.8.44,1.01,3.08,1.27,6.14.8,9.19-.47,3.05-1.51,5.79-3.11,8.22-1.6,2.43-3.69,4.43-6.26,6-2.58,1.57-5.49,2.38-8.75,2.44-2.13.3-4.32.31-6.57.04-2.25-.27-4.35-.86-6.31-1.78-1.95-.92-3.6-2.21-4.93-3.86-1.33-1.66-2.12-3.73-2.35-6.22-.12-2.13-.21-4.35-.27-6.66-.06-2.31-.1-4.9-.13-7.77-.03-2.87-.03-6.13,0-9.77.03-3.64.07-7.86.13-12.66-.12-1.01-.08-2.03.13-3.06.21-1.04.49-2,.84-2.89.53-1.54,1.2-2.96,2-4.26s1.76-2.46,2.89-3.46c.65-.47,1.36-.87,2.13-1.2.77-.33,1.57-.61,2.4-.84,2.72-.89,5.42-1.24,8.08-1.07,2.66.18,5.17.79,7.51,1.82,2.34,1.04,4.46,2.41,6.35,4.13,1.89,1.72,3.4,3.69,4.53,5.91,1.12,2.22,1.81,4.63,2.04,7.24.24,2.61-.12,5.27-1.07,8-2.19.47-4.34.64-6.44.49-2.1-.15-4.28-.43-6.53-.84-.18-1.12-.28-2.4-.31-3.82-.03-1.42-.19-2.74-.49-3.95-.3-1.21-.84-2.21-1.64-2.98-.8-.77-2.06-1.12-3.77-1.07-.77.12-1.59.27-2.44.44-.86.18-1.53.5-2,.98Z"/><path class="cls-7" d="M251.05,170.63v.18c.12,1.9.15,3.86.09,5.91-.06,2.04-.33,3.95-.8,5.73-6.04-.06-12.18.02-18.43.22-6.25.21-12.25.07-17.99-.4,0-5.15-.06-10.26-.18-15.32-.12-5.06-.21-10.11-.27-15.15-.06-5.03-.06-10.07,0-15.1.06-5.03.24-10.1.53-15.19,2.31-.12,4.81-.22,7.51-.31,2.69-.09,5.4-.16,8.13-.22,2.72-.06,5.36-.12,7.91-.18,2.55-.06,4.8-.09,6.75-.09s3.52.03,4.71.09c1.18.06,1.78.12,1.78.18.3,2.07.37,4.17.22,6.31-.15,2.13-.22,4.24-.22,6.31v.09c-1.9.42-3.81.67-5.73.75-1.92.09-3.86.12-5.82.09-1.95-.03-3.91-.04-5.86-.04s-3.91.09-5.86.27h-.27l-.09.09c.06,1.72-.01,3.48-.22,5.29-.21,1.81-.1,3.51.31,5.11l.09.09c1.78.12,3.58.18,5.42.18s3.67.03,5.51.09v.09c.29,2.01.38,4.03.27,6.04-.12,2.01-.15,4.12-.09,6.31-.89.24-1.9.37-3.02.4-1.13.03-2.21.04-3.24.04s-1.97.03-2.8.09c-.83.06-1.39.21-1.69.44-.3,1.72-.4,3.64-.31,5.77s.19,3.91.31,5.33l.09.09c3.91,0,7.76.1,11.55.31,3.79.21,7.7.25,11.73.13Z"/><path class="cls-7" d="M298.48,182.44h.09c-2.07,0-4.38.08-6.93.22-2.55.15-5.15.13-7.82-.04h-.09c-.59-1.36-1.33-2.99-2.22-4.89-.89-1.89-1.87-3.88-2.93-5.95-1.07-2.07-2.22-4.12-3.46-6.13-1.24-2.01-2.49-3.79-3.73-5.33l-.18-.27c-.18,1.36-.27,3.04-.27,5.02s.04,4.03.13,6.13c.09,2.1.19,4.1.31,6,.12,1.9.21,3.41.27,4.53-1.01.42-2.33.68-3.95.8-1.63.12-3.24.19-4.84.22-1.6.03-3.04.01-4.31-.04-1.27-.06-2.06-.06-2.35,0,.12,0,.21-.81.27-2.44.06-1.63.09-3.78.09-6.44v-9.19c0-3.46-.01-7.05-.04-10.75-.03-3.7-.09-7.37-.18-11.01-.09-3.64-.16-6.99-.22-10.04-.06-3.05-.13-5.66-.22-7.82-.09-2.16-.19-3.63-.31-4.4,3.32-.47,6.96-.92,10.93-1.33,3.97-.41,8.11-.38,12.44.09,3.49.18,6.63,1.19,9.42,3.02,2.78,1.84,4.94,4.12,6.49,6.84,1.54,2.72,2.35,5.73,2.44,9.02.09,3.29-.79,6.47-2.62,9.55-1.13,2.13-2.62,3.91-4.49,5.33-1.87,1.42-4.22,2.22-7.06,2.4h-.44v.09c1.24,2.19,2.61,4.37,4.09,6.53,1.48,2.16,2.93,4.34,4.35,6.53,1.42,2.19,2.78,4.43,4.09,6.71,1.3,2.28,2.4,4.63,3.29,7.06ZM268.54,133.05c.06.77.1,1.64.13,2.62.03.98.04,1.97.04,2.98s.01,1.99.04,2.93c.03.95.1,1.75.22,2.4h.09c1.36.12,2.84.21,4.44.27,1.6.06,3.11-.03,4.53-.27,1.12-.24,2-.81,2.62-1.73.62-.92.99-1.92,1.11-3.02.12-1.1,0-2.19-.36-3.29-.35-1.09-.95-1.97-1.78-2.62-1.3-1.18-2.96-1.73-4.97-1.64-2.01.09-4.06.55-6.13,1.38Z"/><path class="cls-7" d="M337.47,130.12c.41.89.72,1.79.93,2.71.21.92.37,1.85.49,2.8.12,1.48.19,2.95.22,4.4.03,1.45.01,2.92-.04,4.4-.18,3.14-.24,6.19-.18,9.15.06,2.96-.03,5.98-.27,9.06l-.27,2.93c-.12,2.07-.44,4.16-.98,6.26-.53,2.1-1.33,4.01-2.4,5.73-1.01,1.42-2.32,2.56-3.95,3.42s-3.36,1.52-5.2,2c-1.66.47-3.33.77-5.02.89-1.69.12-3.39.12-5.11,0-1.24-.12-2.44-.28-3.6-.49-1.16-.21-2.25-.55-3.29-1.02-1.04-.47-1.97-1.08-2.8-1.82-.83-.74-1.51-1.7-2.04-2.89-.83-1.48-1.38-3.06-1.64-4.75s-.43-3.39-.49-5.11c-.18-4.62-.37-9.25-.58-13.9-.21-4.65-.16-9.31.13-13.99.06-2.67.4-5.34,1.02-8.04.62-2.69,1.85-5.08,3.69-7.15.59-.59,1.27-1.12,2.04-1.6,1.95-.95,4.07-1.64,6.35-2.09,2.28-.44,4.56-.61,6.84-.49,2.28.12,4.5.52,6.66,1.2,2.16.68,4.1,1.67,5.82,2.98,1.72,1.54,2.93,3.35,3.64,5.42ZM327.97,151.8l-.18-6.04c0-.06-.04-.67-.13-1.82-.09-1.16-.16-2.24-.22-3.24-.12-1.66-.58-3.17-1.38-4.53-.8-1.36-1.88-2.37-3.24-3.02-1.18-.47-2.4-.56-3.64-.27-1.24.3-2.34.8-3.29,1.51-2.07,1.6-3.46,3.64-4.17,6.13-.47,2.25-.75,4.62-.84,7.11-.09,2.49-.08,4.97.04,7.46.29,2.07.5,4.19.62,6.35.12,2.16.47,4.22,1.07,6.17.59,1.19,1.45,2.1,2.58,2.75,1.12.65,2.34,1.02,3.64,1.11,1.3.09,2.61-.09,3.91-.53s2.4-1.17,3.29-2.18c.53-.71.92-1.29,1.16-1.73.24-.44.38-.93.44-1.47.06-.53.07-1.17.04-1.91-.03-.74.01-1.73.13-2.98.06-1.18.1-2.22.13-3.11.03-.89.04-1.39.04-1.51v-4.26Z"/><path class="cls-7" d="M209.56,214.51v1.29c0,.39-.03.75-.09,1.11-.36,2.84-1.29,5.45-2.8,7.82-1.51,2.37-3.39,4.38-5.64,6.04-2.25,1.66-4.74,2.86-7.46,3.6-2.72.74-5.51.88-8.35.4.06.83.09,1.64.09,2.44v3.46c0,1.51.01,3.54.04,6.08.03,2.55.1,5.98.22,10.3v.09c-.06,0-.1.01-.13.04s-.07.04-.13.04c-.83.24-1.88.4-3.15.49-1.27.09-2.61.15-4,.18-1.39.03-2.77.01-4.13-.04-1.36-.06-2.55-.15-3.55-.27-.18-4.32-.27-9.02-.27-14.08v-15.59c0-5.33-.01-10.69-.04-16.08-.03-5.39-.13-10.54-.31-15.46,2.43-.65,5.08-1.12,7.95-1.42,2.87-.3,5.74-.33,8.62-.09,2.87.24,5.67.75,8.39,1.55,2.72.8,5.14,1.98,7.24,3.55,2.1,1.57,3.83,3.54,5.2,5.91,1.36,2.37,2.13,5.24,2.31,8.62ZM194.02,210.77c-1.48-1.18-3.2-1.94-5.15-2.27-1.95-.32-3.88-.25-5.77.22-.12,0-.21.03-.27.09.06,1.07.07,2.19.04,3.38-.03,1.19-.03,2.37,0,3.55.03,1.18.09,2.32.18,3.42.09,1.1.28,2.09.58,2.98h.27c.95-.06,1.96-.1,3.02-.13,1.07-.03,2.12-.1,3.15-.22,1.04-.12,2.04-.34,3.02-.67.98-.33,1.82-.84,2.53-1.55.47-.65.81-1.39,1.02-2.22.21-.83.24-1.66.09-2.49-.15-.83-.44-1.6-.89-2.31s-1.05-1.3-1.82-1.78Z"/><path class="cls-7" d="M238.7,226.94l6.66,31.09v.09c-1.78.36-3.73.49-5.86.4s-4.15-.34-6.04-.76h-.09c-.36-.95-.7-2.07-1.02-3.38-.33-1.3-.65-2.63-.98-4-.33-1.36-.67-2.67-1.02-3.91-.36-1.24-.74-2.31-1.16-3.2-.77-.12-1.36-.18-1.78-.18h-1.11c-.33,0-.68.01-1.07.04-.39.03-.9.04-1.55.04-.42.95-.76,2.06-1.02,3.33-.27,1.27-.53,2.61-.8,4-.27,1.39-.55,2.74-.84,4.04-.3,1.3-.71,2.46-1.24,3.46-.06,0-.1.02-.13.04s-.08.04-.13.04c-.47.12-1.66.12-3.55,0-1.9-.12-4.86-.15-8.88-.09-.06,0-.12-.03-.18-.09.12-.41.32-1.57.62-3.46.29-1.89.71-4.35,1.24-7.37s1.17-6.5,1.91-10.44c.74-3.94,1.61-8.13,2.62-12.57,1.01-4.44,2.1-9.06,3.29-13.86,1.18-4.8,2.49-9.56,3.91-14.3.41-.06.86-.09,1.33-.09h1.87c.77,0,1.76-.01,2.98-.04,1.21-.03,2.8-.13,4.75-.31.18.77.46,1.94.84,3.51.38,1.57.8,3.35,1.24,5.33.44,1.99.92,4.1,1.42,6.35.5,2.25.99,4.41,1.47,6.48.47,2.07.92,3.97,1.33,5.69.41,1.72.74,3.08.98,4.09ZM229.64,232.72c-.59-5.09-1.11-9.06-1.55-11.9-.44-2.84-.83-4.77-1.15-5.77-.33-1.01-.65-1.23-.98-.67-.33.56-.62,1.7-.89,3.42-.27,1.72-.56,3.88-.89,6.48-.33,2.61-.7,5.42-1.11,8.44,1.01.06,2.07.08,3.2.04,1.12-.03,2.25-.04,3.38-.04Z"/><path class="cls-7" d="M279.38,196.38c.12,1.95.16,4.21.13,6.75-.03,2.55-.19,4.89-.49,7.02-1.12-.24-2.52-.32-4.17-.27-1.66.06-3.88.15-6.66.27h-.27c0,.06-.01.1-.04.13s-.04.07-.04.13c-.06.3-.1.75-.13,1.38-.03.62-.04,1.6-.04,2.93s.01,3.08.04,5.24c.03,2.16.07,4.95.13,8.35.06,3.41.12,7.49.18,12.26.06,4.77.15,10.38.27,16.83v.18c-1.07.18-2.24.28-3.51.31-1.27.03-2.55.04-3.82.04h-3.78c-1.24,0-2.4.09-3.46.27-.06-.24-.06-1.3,0-3.2.06-1.89.1-4.72.13-8.48.03-3.76,0-8.57-.09-14.43-.09-5.86-.31-12.94-.67-21.23l-.09-.09c-.71-.36-1.6-.58-2.67-.67-1.07-.09-2.13-.15-3.2-.18-1.07-.03-2.04-.04-2.93-.04s-1.51-.06-1.87-.18c-.12-.24-.22-.83-.31-1.78-.09-.95-.15-2.09-.18-3.42-.03-1.33-.04-2.77-.04-4.31s.06-3.02.18-4.44c0-.06-.02-.09-.04-.09s-.04-.03-.04-.09c6.04-.06,12.27-.1,18.7-.13,6.42-.03,12.69.28,18.79.93Z"/><path class="cls-7" d="M308.52,226.94l6.66,31.09v.09c-1.78.36-3.73.49-5.86.4s-4.15-.34-6.04-.76h-.09c-.36-.95-.7-2.07-1.02-3.38-.33-1.3-.65-2.63-.98-4-.33-1.36-.67-2.67-1.02-3.91-.36-1.24-.74-2.31-1.16-3.2-.77-.12-1.36-.18-1.78-.18h-1.11c-.33,0-.68.01-1.07.04-.39.03-.9.04-1.55.04-.42.95-.76,2.06-1.02,3.33-.27,1.27-.53,2.61-.8,4-.27,1.39-.55,2.74-.84,4.04-.3,1.3-.71,2.46-1.24,3.46-.06,0-.1.02-.13.04s-.08.04-.13.04c-.47.12-1.66.12-3.55,0-1.9-.12-4.86-.15-8.88-.09-.06,0-.12-.03-.18-.09.12-.41.32-1.57.62-3.46.29-1.89.71-4.35,1.24-7.37s1.17-6.5,1.91-10.44c.74-3.94,1.61-8.13,2.62-12.57,1.01-4.44,2.1-9.06,3.29-13.86,1.18-4.8,2.49-9.56,3.91-14.3.41-.06.86-.09,1.33-.09h1.87c.77,0,1.76-.01,2.98-.04,1.21-.03,2.8-.13,4.75-.31.18.77.46,1.94.84,3.51.38,1.57.8,3.35,1.24,5.33.44,1.99.92,4.1,1.42,6.35.5,2.25.99,4.41,1.47,6.48.47,2.07.92,3.97,1.33,5.69.41,1.72.74,3.08.98,4.09ZM299.46,232.72c-.59-5.09-1.11-9.06-1.55-11.9-.44-2.84-.83-4.77-1.15-5.77-.33-1.01-.65-1.23-.98-.67-.33.56-.62,1.7-.89,3.42-.27,1.72-.56,3.88-.89,6.48-.33,2.61-.7,5.42-1.11,8.44,1.01.06,2.07.08,3.2.04,1.12-.03,2.25-.04,3.38-.04Z"/><path class="cls-7" d="M349.2,196.38c.12,1.95.16,4.21.13,6.75-.03,2.55-.19,4.89-.49,7.02-1.12-.24-2.52-.32-4.17-.27-1.66.06-3.88.15-6.66.27h-.27c0,.06-.01.1-.04.13s-.04.07-.04.13c-.06.3-.1.75-.13,1.38-.03.62-.04,1.6-.04,2.93s.01,3.08.04,5.24c.03,2.16.07,4.95.13,8.35.06,3.41.12,7.49.18,12.26.06,4.77.15,10.38.27,16.83v.18c-1.07.18-2.24.28-3.51.31-1.27.03-2.55.04-3.82.04h-3.78c-1.24,0-2.4.09-3.46.27-.06-.24-.06-1.3,0-3.2.06-1.89.1-4.72.13-8.48.03-3.76,0-8.57-.09-14.43-.09-5.86-.31-12.94-.67-21.23l-.09-.09c-.71-.36-1.6-.58-2.67-.67-1.07-.09-2.13-.15-3.2-.18-1.07-.03-2.04-.04-2.93-.04s-1.51-.06-1.87-.18c-.12-.24-.22-.83-.31-1.78-.09-.95-.15-2.09-.18-3.42-.03-1.33-.04-2.77-.04-4.31s.06-3.02.18-4.44c0-.06-.02-.09-.04-.09s-.04-.03-.04-.09c6.04-.06,12.27-.1,18.7-.13,6.42-.03,12.69.28,18.79.93Z"/><path class="cls-7" d="M391.31,246.04v.18c.12,1.9.15,3.86.09,5.91-.06,2.04-.33,3.95-.8,5.73-6.04-.06-12.18.02-18.43.22-6.25.21-12.25.07-17.99-.4,0-5.15-.06-10.26-.18-15.32-.12-5.06-.21-10.11-.27-15.15-.06-5.03-.06-10.07,0-15.1.06-5.03.24-10.1.53-15.19,2.31-.12,4.81-.22,7.51-.31,2.69-.09,5.4-.16,8.13-.22,2.72-.06,5.36-.12,7.91-.18,2.55-.06,4.8-.09,6.75-.09s3.52.03,4.71.09c1.18.06,1.78.12,1.78.18.3,2.07.37,4.17.22,6.31-.15,2.13-.22,4.24-.22,6.31v.09c-1.9.42-3.81.67-5.73.75-1.92.09-3.86.12-5.82.09-1.95-.03-3.91-.04-5.86-.04s-3.91.09-5.86.27h-.27l-.09.09c.06,1.72-.01,3.48-.22,5.29-.21,1.81-.1,3.51.31,5.11l.09.09c1.78.12,3.58.18,5.42.18s3.67.03,5.51.09v.09c.29,2.01.38,4.03.27,6.04-.12,2.01-.15,4.12-.09,6.31-.89.24-1.9.37-3.02.4-1.13.03-2.21.04-3.24.04s-1.97.03-2.8.09c-.83.06-1.39.21-1.69.44-.3,1.72-.4,3.64-.31,5.77s.19,3.91.31,5.33l.09.09c3.91,0,7.76.1,11.55.31,3.79.21,7.7.25,11.73.13Z"/><path class="cls-7" d="M438.74,257.85h.09c-2.07,0-4.38.08-6.93.22-2.55.15-5.15.13-7.82-.04h-.09c-.59-1.36-1.33-2.99-2.22-4.89-.89-1.89-1.87-3.88-2.93-5.95-1.07-2.07-2.22-4.12-3.46-6.13-1.24-2.01-2.49-3.79-3.73-5.33l-.18-.27c-.18,1.36-.27,3.04-.27,5.02s.04,4.03.13,6.13c.09,2.1.19,4.1.31,6,.12,1.9.21,3.41.27,4.53-1.01.42-2.33.68-3.95.8-1.63.12-3.24.19-4.84.22-1.6.03-3.04.01-4.31-.04-1.27-.06-2.06-.06-2.35,0,.12,0,.21-.81.27-2.44.06-1.63.09-3.78.09-6.44v-9.19c0-3.46-.01-7.05-.04-10.75-.03-3.7-.09-7.37-.18-11.01-.09-3.64-.16-6.99-.22-10.04-.06-3.05-.13-5.66-.22-7.82-.09-2.16-.19-3.63-.31-4.4,3.32-.47,6.96-.92,10.93-1.33,3.97-.41,8.11-.38,12.44.09,3.49.18,6.63,1.19,9.42,3.02,2.78,1.84,4.94,4.12,6.49,6.84,1.54,2.72,2.35,5.73,2.44,9.02.09,3.29-.79,6.47-2.62,9.55-1.13,2.13-2.62,3.91-4.49,5.33-1.87,1.42-4.22,2.22-7.06,2.4h-.44v.09c1.24,2.19,2.61,4.37,4.09,6.53,1.48,2.16,2.93,4.34,4.35,6.53,1.42,2.19,2.78,4.43,4.09,6.71,1.3,2.28,2.4,4.63,3.29,7.06ZM408.8,208.47c.06.77.1,1.64.13,2.62.03.98.04,1.97.04,2.98s.01,1.99.04,2.93c.03.95.1,1.75.22,2.4h.09c1.36.12,2.84.21,4.44.27,1.6.06,3.11-.03,4.53-.27,1.12-.24,2-.81,2.62-1.73.62-.92.99-1.92,1.11-3.02.12-1.1,0-2.19-.36-3.29-.35-1.09-.95-1.97-1.78-2.62-1.3-1.18-2.96-1.73-4.97-1.64-2.01.09-4.06.55-6.13,1.38Z"/><path class="cls-7" d="M477.74,205.53c.41.89.72,1.79.93,2.71.21.92.37,1.85.49,2.8.12,1.48.19,2.95.22,4.4.03,1.45.01,2.92-.04,4.4-.18,3.14-.24,6.19-.18,9.15.06,2.96-.03,5.98-.27,9.06l-.27,2.93c-.12,2.07-.44,4.16-.98,6.26-.53,2.1-1.33,4.01-2.4,5.73-1.01,1.42-2.32,2.56-3.95,3.42s-3.36,1.52-5.2,2c-1.66.47-3.33.77-5.02.89-1.69.12-3.39.12-5.11,0-1.24-.12-2.44-.28-3.6-.49-1.16-.21-2.25-.55-3.29-1.02-1.04-.47-1.97-1.08-2.8-1.82-.83-.74-1.51-1.7-2.04-2.89-.83-1.48-1.38-3.06-1.64-4.75s-.43-3.39-.49-5.11c-.18-4.62-.37-9.25-.58-13.9-.21-4.65-.16-9.31.13-13.99.06-2.67.4-5.34,1.02-8.04.62-2.69,1.85-5.08,3.69-7.15.59-.59,1.27-1.12,2.04-1.6,1.95-.95,4.07-1.64,6.35-2.09,2.28-.44,4.56-.61,6.84-.49,2.28.12,4.5.52,6.66,1.2,2.16.68,4.1,1.67,5.82,2.98,1.72,1.54,2.93,3.35,3.64,5.42ZM468.23,227.21l-.18-6.04c0-.06-.04-.67-.13-1.82-.09-1.16-.16-2.24-.22-3.24-.12-1.66-.58-3.17-1.38-4.53-.8-1.36-1.88-2.37-3.24-3.02-1.18-.47-2.4-.56-3.64-.27-1.24.3-2.34.8-3.29,1.51-2.07,1.6-3.46,3.64-4.17,6.13-.47,2.25-.75,4.62-.84,7.11-.09,2.49-.08,4.97.04,7.46.29,2.07.5,4.19.62,6.35.12,2.16.47,4.22,1.07,6.17.59,1.19,1.45,2.1,2.58,2.75,1.12.65,2.34,1.02,3.64,1.11,1.3.09,2.61-.09,3.91-.53s2.4-1.17,3.29-2.18c.53-.71.92-1.29,1.16-1.73.24-.44.38-.93.44-1.47.06-.53.07-1.17.04-1.91-.03-.74.01-1.73.13-2.98.06-1.18.1-2.22.13-3.11.03-.89.04-1.39.04-1.51v-4.26Z"/><path class="cls-7" d="M80.81,157.52c.16.08.34.12.51.12.44,0,.86-.25,1.07-.66.06-.13,1.57-3.08,5.82-2.71.65.06,1.23-.43,1.28-1.08.06-.65-.43-1.23-1.08-1.28-5.93-.51-8.07,3.87-8.16,4.05-.28.59-.03,1.29.56,1.57Z"/><path class="cls-7" d="M107.89,155.16c-1.97.48-3.47.37-4.46-.32-1.08-.76-1.24-2.05-1.24-2.09-.06-.65-.63-1.13-1.28-1.07-.65.06-1.13.63-1.08,1.28,0,.1.23,2.37,2.2,3.78,1,.71,2.23,1.07,3.68,1.07.84,0,1.76-.12,2.74-.36.64-.15,1.02-.8.87-1.43-.15-.64-.8-1.02-1.43-.87Z"/><path class="cls-7" d="M87.64,158.31c-1.14-.65-2.58-.25-3.23.88-2.25,3.94-1.88,9.81-1.83,10.46.09,1.24,1.13,2.19,2.36,2.19.06,0,.12,0,.18,0,1.3-.1,2.28-1.24,2.18-2.54-.1-1.38-.09-5.46,1.22-7.76.65-1.14.25-2.58-.88-3.23Z"/><path class="cls-7" d="M99.09,172.59h.01c1.31,0,2.36-1.07,2.36-2.38,0-1.3.27-5.18,1.61-7.52.65-1.14.25-2.58-.88-3.23-1.14-.65-2.58-.25-3.23.88-2.25,3.94-2.24,9.65-2.24,9.9,0,1.3,1.07,2.35,2.37,2.35Z"/><path class="cls-7" d="M104.37,175.63c-.35-.22-.8-.25-1.18-.05-11.89,6.08-22.13.29-22.56.04-.42-.24-.94-.21-1.32.09-.38.3-.54.8-.41,1.26,0,.03.84,2.8,2.49,6.16,0,0,0,0,0,0,2.53,5.19,6.8,11.39,12.72,11.47.04,0,.07,0,.11,0,4.91,0,8.36-4.22,9.97-12.2,0,0,0,0,0,0,0,0,0,0,0,0,0,0,0,0,0,0h0c.63-3.11.73-5.61.73-5.72.02-.42-.19-.82-.55-1.04ZM102.39,178.56c-.09.82-.23,1.84-.45,2.95-3.36,2.78-7.48,3.67-12.26,2.66-3.1-.66-5.53-1.95-6.32-2.41-.51-1.06-.93-2.05-1.26-2.89,3.89,1.49,11.59,3.37,20.28-.31Z"/><path class="cls-7" d="M47.85,174.18c6.17.61,7.81,7.02,7.87,7.29.13.54.61.91,1.15.91.07,0,.15,0,.22-.02.62-.12,1.04-.7.95-1.33-.73-5.09,3.8-9.56,3.84-9.6.36-.34.46-.87.26-1.32-.2-.45-.65-.74-1.15-.71-3.39.16-5.06-4.09-5.07-4.13-.19-.51-.68-.82-1.23-.77-.54.05-.97.47-1.05,1-.79,5.18-5.71,6.3-5.93,6.35-.57.12-.97.64-.94,1.22.03.58.48,1.06,1.07,1.12ZM55.16,168.66c.82,1.09,2,2.23,3.61,2.78-.93,1.23-2.07,3.06-2.7,5.24-1-1.47-2.46-2.99-4.54-3.94,1.31-.84,2.72-2.13,3.63-4.08Z"/><path class="cls-7" d="M146.24,153.08c3.36-.45,6.25-3.27,7.5-4.68.4-.45.21-1.17-.37-1.34-3.49-1.07-9.72,2.83-9.72,2.83.36-.86,3.67-8.35,1.08-9.03-2.64-.69-6.74,8.03-6.74,8.03-3.23-6.17-5.9-4.07-5.9-4.07-1.1.2.7,9.99.7,9.99-6.02,12.04-14.02,17.91-17.22,19.89-.49-5.54-.43-11.14.5-15.4.08-.39.16-.77.23-1.16,1.23-1.05,4.84-4.35,7.53-8.93,4.41-7.52,4.15-14.75-.77-20.92-3.84-4.82-8.15-7.46-12.79-7.84-4.95-.41-8.85,1.89-10.53,3.1-5.5-3.34-12.63-5.74-19.72-2.65-3.87,1.69-6.15,4.21-6.77,7.49-1.25,6.57,4.78,14.1,7.2,16.8-2.66,3.02-4.73,6.3-6.25,9.11-3.05,5.66-4.49,10.48-4.63,10.94-2.78,8.45-2.72,15.71-1.39,21.64-2.74,3.33-7.96,14.71-10.47,20.37-.79,1.77-2.54,2.94-4.48,2.92-3.87-.04-7.38,1.21-7.63,2.55-.31,1.68,8.64,1.14,6.59,1.84s-6.13,4.44-5.59,7.35c.54,2.91,8.34-4.33,8.34-4.33,0,0-5.25,5.86-2.75,8.51,2.51,2.66,5.85-6.03,5.85-6.03,1.37,3,3.21,5.86,4.66,5.71,1.32-.14,2.19-1.46,1.8-2.73-.63-2.06-1.65-5.42-2.36-7.62-1.22-3.81,5.29-17.99,7.72-23.08.86,2.17,1.86,4.1,2.87,5.75,2.83,4.62,7.09,8.34,12.13,10.65-1.36,5.35-5.59,24.38-.81,37.51-2.28.01-5.16.19-7.63.83-2.32.6-6.43,1.99-7.89,4.52-.5.86-.63,1.79-.39,2.69.26.95,1.27,1.71,3.08,2.31,1.97.65,4.77,1.08,7.68,1.08,3.9,0,8.01-.76,10.57-2.76.07-.06.14-.12.2-.19.1-.12,2.14-2.77-.02-6.73-.57-2.91-4.71-25.2.9-37.19,3.51,1.02,6.77,1.53,9.77,1.53,1.91,0,3.71-.21,5.41-.62-.21,4.29-.27,23.08,13.72,30.31-.09.09-.17.2-.23.32-1.17,2.49-4.84,10.81-2.71,13.56.94,1.22,2.37,1.89,3.95,1.89.37,0,.75-.04,1.13-.11,1.92-.38,6.68-2.33,9.46-12.34.67-2.41-.07-4.93-1.93-6.59-1.84-1.64-4.4-2.08-6.68-1.16l-.26.11s-.07.04-.11.06c-3.5-2.7-11.91-11-11.19-28.11.98-.57,1.9-1.23,2.78-1.99,4.98-4.28,6.85-11.26,4.76-17.78-.82-2.55-1.54-5.7-2.08-9.08,6.1-.38,20.88-22.87,21.44-22.62.57.25,15.54,1.77,16.34,0,1.28-2.82-7.89-5.09-7.89-5.09ZM110.06,123.39c3.79.32,7.39,2.59,10.69,6.73,4.13,5.18,4.33,11.07.57,17.51-1.28,2.2-2.83,4.1-4.17,5.55.09-.75.93-8.04-1.12-12.67-1.62-3.67-6.76-10.1-13.08-14.81-.17-.13-.35-.26-.53-.39,1.64-.98,4.39-2.2,7.64-1.92ZM76.16,128.92c.44-2.29,2.09-4.04,5.05-5.33,7.27-3.17,14.88.69,19.98,4.48,4.78,3.56,8.57,7.93,10.68,11.08-.8-.57-1.67-1.06-2.61-1.43-7.07-2.8-13.73-2.7-19.78.28-2.62,1.29-4.94,3.05-6.98,5.02-2.22-2.53-7.32-8.99-6.34-14.1ZM111.73,205.4c-5.54,4.76-13.59,5.21-23.94,1.35-5.25-1.96-9.69-5.58-12.53-10.21-3.82-6.25-7.42-16.59-2.87-30.41l.02-.05c.05-.19,5.65-19.16,18.39-25.42,2.69-1.32,5.54-1.99,8.51-1.99s5.8.6,8.86,1.81c3.12,1.23,5.31,4.06,5.71,7.37.39,3.23.16,6.86-.7,10.8-1.96,9.03-.27,23.7,2.42,32.11,1.72,5.39.2,11.13-3.88,14.63Z"/><path class="cls-5" d="M116.23,151.92s.97-7.47-1-11.93c-2.82-6.38-19.45-25.25-34.07-18.87-14.62,6.38,1.84,22.92,1.84,22.92l5.12-4.34,4.32-2.24,9.12-1.32,8.76,2.34,3.78,3,2.14,10.44Z"/><path class="cls-2" d="M80.59,146.85s25.6-10.26,34.58,4.89v-8.82l-5.91-4.93-5.69-2.12-8.32.46-6.4,1.55-3.49,4.15-4.77,4.81Z"/><path class="cls-2" d="M83,204.65s31.19,2.31,34.56-15.46l.76,6.69-1.86,5.53s-8.02,9.32-12.9,8.12c-4.87-1.2-9.75-.69-9.75-.69l-10.82-4.19Z"/><path class="cls-7" d="M80.81,157.52c.16.08.34.12.51.12.44,0,.86-.25,1.07-.66.06-.13,1.57-3.08,5.82-2.71.65.06,1.23-.43,1.28-1.08.06-.65-.43-1.23-1.08-1.28-5.93-.51-8.07,3.87-8.16,4.05-.28.59-.03,1.29.56,1.57Z"/><path class="cls-7" d="M107.89,155.16c-1.97.48-3.47.37-4.46-.32-1.08-.76-1.24-2.05-1.24-2.09-.06-.65-.63-1.13-1.28-1.07-.65.06-1.13.63-1.08,1.28,0,.1.23,2.37,2.2,3.78,1,.71,2.23,1.07,3.68,1.07.84,0,1.76-.12,2.74-.36.64-.15,1.02-.8.87-1.43-.15-.64-.8-1.02-1.43-.87Z"/><path class="cls-7" d="M87.64,158.31c-1.14-.65-2.58-.25-3.23.88-2.25,3.94-1.88,9.81-1.83,10.46.09,1.24,1.13,2.19,2.36,2.19.06,0,.12,0,.18,0,1.3-.1,2.28-1.24,2.18-2.54-.1-1.38-.09-5.46,1.22-7.76.65-1.14.25-2.58-.88-3.23Z"/><path class="cls-7" d="M99.09,172.59h.01c1.31,0,2.36-1.07,2.36-2.38,0-1.3.27-5.18,1.61-7.52.65-1.14.25-2.58-.88-3.23-1.14-.65-2.58-.25-3.23.88-2.25,3.94-2.24,9.65-2.24,9.9,0,1.3,1.07,2.35,2.37,2.35Z"/><path class="cls-7" d="M104.37,175.63c-.35-.22-.8-.25-1.18-.05-11.89,6.08-22.13.29-22.56.04-.42-.24-.94-.21-1.32.09-.38.3-.54.8-.41,1.26,0,.03.84,2.8,2.49,6.16,0,0,0,0,0,0,2.53,5.19,6.8,11.39,12.72,11.47.04,0,.07,0,.11,0,4.91,0,8.36-4.22,9.97-12.2,0,0,0,0,0,0,0,0,0,0,0,0,0,0,0,0,0,0h0c.63-3.11.73-5.61.73-5.72.02-.42-.19-.82-.55-1.04ZM102.39,178.56c-.09.82-.23,1.84-.45,2.95-3.36,2.78-7.48,3.67-12.26,2.66-3.1-.66-5.53-1.95-6.32-2.41-.51-1.06-.93-2.05-1.26-2.89,3.89,1.49,11.59,3.37,20.28-.31Z"/><path class="cls-6" d="M47.85,174.18c6.17.61,7.81,7.02,7.87,7.29.13.54.61.91,1.15.91.07,0,.15,0,.22-.02.62-.12,1.04-.7.95-1.33-.73-5.09,3.8-9.56,3.84-9.6.36-.34.46-.87.26-1.32-.2-.45-.65-.74-1.15-.71-3.39.16-5.06-4.09-5.07-4.13-.19-.51-.68-.82-1.23-.77-.54.05-.97.47-1.05,1-.79,5.18-5.71,6.3-5.93,6.35-.57.12-.97.64-.94,1.22.03.58.48,1.06,1.07,1.12ZM55.16,168.66c.82,1.09,2,2.23,3.61,2.78-.93,1.23-2.07,3.06-2.7,5.24-1-1.47-2.46-2.99-4.54-3.94,1.31-.84,2.72-2.13,3.63-4.08Z"/><path class="cls-3" d="M116.23,151.92s.97-7.47-1-11.93c-2.82-6.38-19.45-25.25-34.07-18.87-14.62,6.38,1.84,22.92,1.84,22.92l5.12-4.34,4.32-2.24,9.12-1.32,8.76,2.34,3.78,3,2.14,10.44Z"/><path class="cls-7" d="M128.67,209.71c1.36-.19,3.3-.86,4.93-2.96.25-.32.76-.22.83.18.25,1.33.98,3.41,3.14,4.5.38.19.36.74-.04.87-1.46.46-3.66,1.55-5.34,4.05-.25.38-.82.25-.87-.21-.15-1.62-.75-4.03-2.86-5.59-.35-.26-.22-.79.21-.85Z"/></svg>