<?xml version="1.0" encoding="utf-8"?>
<!-- Generator: Adobe Illustrator 28.0.0, SVG Export Plug-In . SVG Version: 6.00 Build 0)  -->
<svg version="1.1" id="Capa_2_00000142869425703684998160000007669649898423811754_"
	 xmlns="http://www.w3.org/2000/svg" xmlns:xlink="http://www.w3.org/1999/xlink" x="0px" y="0px" viewBox="0 0 449 156"
	 style="enable-background:new 0 0 449 156;" xml:space="preserve">
<style type="text/css">
	.st0{fill:none;}
	.st1{fill:#244BA5;}
	.st2{fill:#942D13;}
	.st3{fill:url(#SVGID_1_);}
	.st4{fill:url(#SVGID_00000155862791492552553660000010134762973575500676_);}
	.st5{fill:url(#SVGID_00000154419159316463077580000004092456587880270996_);}
	.st6{fill:url(#SVGID_00000093864866775244898970000006709435500325095316_);}
</style>
<pattern  x="-38" y="273.5" width="28.8" height="28.8" patternUnits="userSpaceOnUse" id="_10_ppp_20_3" viewBox="1.4 -30.2 28.8 28.8" style="overflow:visible;">
	<g>
		<rect x="1.4" y="-30.2" class="st0" width="28.8" height="28.8"/>
		<rect x="1.4" y="-30.2" class="st0" width="28.8" height="28.8"/>
		<path class="st1" d="M30.2-31.7c0.8,0,1.4,0.6,1.4,1.4s-0.6,1.4-1.4,1.4s-1.4-0.6-1.4-1.4S29.4-31.7,30.2-31.7z"/>
		<path class="st1" d="M15.8-31.7c0.8,0,1.4,0.6,1.4,1.4s-0.6,1.4-1.4,1.4s-1.4-0.6-1.4-1.4S15-31.7,15.8-31.7z"/>
		<path class="st1" d="M30.2-17.3c0.8,0,1.4,0.6,1.4,1.4s-0.6,1.4-1.4,1.4s-1.4-0.6-1.4-1.4C28.8-16.6,29.4-17.3,30.2-17.3z"/>
		<path class="st1" d="M15.8-17.3c0.8,0,1.4,0.6,1.4,1.4s-0.6,1.4-1.4,1.4s-1.4-0.6-1.4-1.4C14.4-16.6,15-17.3,15.8-17.3z"/>
		<path class="st1" d="M8.6-24.5c0.8,0,1.4,0.6,1.4,1.4s-0.7,1.4-1.4,1.4S7.2-22.2,7.2-23S7.8-24.5,8.6-24.5z"/>
		<path class="st1" d="M23-24.5c0.8,0,1.4,0.6,1.4,1.4s-0.6,1.4-1.4,1.4s-1.4-0.6-1.4-1.4S22.2-24.5,23-24.5z"/>
		<path class="st1" d="M8.6-10.1c0.8,0,1.4,0.6,1.4,1.4S9.4-7.2,8.6-7.2S7.2-7.8,7.2-8.6S7.8-10.1,8.6-10.1z"/>
		<path class="st1" d="M23-10.1c0.8,0,1.4,0.6,1.4,1.4S23.8-7.2,23-7.2s-1.4-0.6-1.4-1.4S22.2-10.1,23-10.1z"/>
		<path class="st1" d="M1.4-31.7c0.8,0,1.4,0.6,1.4,1.4s-0.7,1.4-1.4,1.4S0-29.4,0-30.2S0.6-31.7,1.4-31.7z"/>
		<path class="st1" d="M1.4-17.3c0.8,0,1.4,0.6,1.4,1.4s-0.7,1.4-1.4,1.4S0-15,0-15.8S0.6-17.3,1.4-17.3z"/>
		<path class="st1" d="M30.2-2.9c0.8,0,1.4,0.6,1.4,1.4S31,0,30.2,0s-1.4-0.7-1.4-1.4S29.4-2.9,30.2-2.9z"/>
		<path class="st1" d="M15.8-2.9c0.8,0,1.4,0.6,1.4,1.4S16.6,0,15.8,0s-1.4-0.7-1.4-1.4S15-2.9,15.8-2.9z"/>
		<path class="st1" d="M1.4-2.9c0.8,0,1.4,0.6,1.4,1.4S2.2,0,1.4,0S0-0.7,0-1.4S0.6-2.9,1.4-2.9z"/>
	</g>
</pattern>
<pattern  x="-38" y="273.5" width="28.8" height="28.8" patternUnits="userSpaceOnUse" id="_10_ppp_40_" viewBox="2.9 -31.7 28.8 28.8" style="overflow:visible;">
	<g>
		<rect x="2.9" y="-31.7" class="st0" width="28.8" height="28.8"/>
		<rect x="2.9" y="-31.7" class="st0" width="28.8" height="28.8"/>
		<path class="st2" d="M31.7-34.6c1.6,0,2.9,1.3,2.9,2.9s-1.3,2.9-2.9,2.9s-2.9-1.3-2.9-2.9S30.1-34.6,31.7-34.6z"/>
		<path class="st2" d="M17.3-34.6c1.6,0,2.9,1.3,2.9,2.9s-1.3,2.9-2.9,2.9s-2.9-1.3-2.9-2.9S15.7-34.6,17.3-34.6z"/>
		<path class="st2" d="M31.7-20.2c1.6,0,2.9,1.3,2.9,2.9s-1.3,2.9-2.9,2.9s-2.9-1.3-2.9-2.9S30.1-20.2,31.7-20.2z"/>
		<path class="st2" d="M17.3-20.2c1.6,0,2.9,1.3,2.9,2.9s-1.3,2.9-2.9,2.9s-2.9-1.3-2.9-2.9S15.7-20.2,17.3-20.2z"/>
		<path class="st2" d="M10.1-27.4c1.6,0,2.9,1.3,2.9,2.9s-1.3,2.9-2.9,2.9s-2.9-1.3-2.9-2.9S8.5-27.4,10.1-27.4z"/>
		<path class="st2" d="M24.5-27.4c1.6,0,2.9,1.3,2.9,2.9s-1.3,2.9-2.9,2.9s-2.9-1.3-2.9-2.9S22.9-27.4,24.5-27.4z"/>
		<path class="st2" d="M10.1-13c1.6,0,2.9,1.3,2.9,2.9s-1.3,2.9-2.9,2.9s-2.9-1.3-2.9-2.9S8.5-13,10.1-13z"/>
		<path class="st2" d="M24.5-13c1.6,0,2.9,1.3,2.9,2.9s-1.3,2.9-2.9,2.9s-2.9-1.3-2.9-2.9S22.9-13,24.5-13z"/>
		<path class="st2" d="M2.9-34.6c1.6,0,2.9,1.3,2.9,2.9s-1.3,2.9-2.9,2.9S0-30.1,0-31.7S1.3-34.6,2.9-34.6z"/>
		<path class="st2" d="M2.9-20.2c1.6,0,2.9,1.3,2.9,2.9s-1.3,2.9-2.9,2.9S0-15.7,0-17.3S1.3-20.2,2.9-20.2z"/>
		<path class="st2" d="M31.7-5.8c1.6,0,2.9,1.3,2.9,2.9S33.3,0,31.7,0s-2.9-1.3-2.9-2.9S30.1-5.8,31.7-5.8z"/>
		<path class="st2" d="M17.3-5.8c1.6,0,2.9,1.3,2.9,2.9S18.9,0,17.3,0s-2.9-1.3-2.9-2.9S15.7-5.8,17.3-5.8z"/>
		<path class="st2" d="M2.9-5.8c1.6,0,2.9,1.3,2.9,2.9S4.5,0,2.9,0S0-1.3,0-2.9S1.3-5.8,2.9-5.8z"/>
	</g>
</pattern>
<pattern  x="-38" y="273.5" width="28.8" height="28.8" patternUnits="userSpaceOnUse" id="_10_ppp_40_2" viewBox="2.9 -31.7 28.8 28.8" style="overflow:visible;">
	<g>
		<rect x="2.9" y="-31.7" class="st0" width="28.8" height="28.8"/>
		<rect x="2.9" y="-31.7" class="st0" width="28.8" height="28.8"/>
		<path class="st1" d="M31.7-34.6c1.6,0,2.9,1.3,2.9,2.9s-1.3,2.9-2.9,2.9s-2.9-1.3-2.9-2.9S30.1-34.6,31.7-34.6z"/>
		<path class="st1" d="M17.3-34.6c1.6,0,2.9,1.3,2.9,2.9s-1.3,2.9-2.9,2.9s-2.9-1.3-2.9-2.9S15.7-34.6,17.3-34.6z"/>
		<path class="st1" d="M31.7-20.2c1.6,0,2.9,1.3,2.9,2.9s-1.3,2.9-2.9,2.9s-2.9-1.3-2.9-2.9S30.1-20.2,31.7-20.2z"/>
		<path class="st1" d="M17.3-20.2c1.6,0,2.9,1.3,2.9,2.9s-1.3,2.9-2.9,2.9s-2.9-1.3-2.9-2.9S15.7-20.2,17.3-20.2z"/>
		<path class="st1" d="M10.1-27.4c1.6,0,2.9,1.3,2.9,2.9s-1.3,2.9-2.9,2.9s-2.9-1.3-2.9-2.9S8.5-27.4,10.1-27.4z"/>
		<path class="st1" d="M24.5-27.4c1.6,0,2.9,1.3,2.9,2.9s-1.3,2.9-2.9,2.9s-2.9-1.3-2.9-2.9S22.9-27.4,24.5-27.4z"/>
		<path class="st1" d="M10.1-13c1.6,0,2.9,1.3,2.9,2.9s-1.3,2.9-2.9,2.9s-2.9-1.3-2.9-2.9S8.5-13,10.1-13z"/>
		<path class="st1" d="M24.5-13c1.6,0,2.9,1.3,2.9,2.9s-1.3,2.9-2.9,2.9s-2.9-1.3-2.9-2.9S22.9-13,24.5-13z"/>
		<path class="st1" d="M2.9-34.6c1.6,0,2.9,1.3,2.9,2.9s-1.3,2.9-2.9,2.9S0-30.1,0-31.7S1.3-34.6,2.9-34.6z"/>
		<path class="st1" d="M2.9-20.2c1.6,0,2.9,1.3,2.9,2.9s-1.3,2.9-2.9,2.9S0-15.7,0-17.3S1.3-20.2,2.9-20.2z"/>
		<path class="st1" d="M31.7-5.8c1.6,0,2.9,1.3,2.9,2.9S33.3,0,31.7,0s-2.9-1.3-2.9-2.9S30.1-5.8,31.7-5.8z"/>
		<path class="st1" d="M17.3-5.8c1.6,0,2.9,1.3,2.9,2.9S18.9,0,17.3,0s-2.9-1.3-2.9-2.9S15.7-5.8,17.3-5.8z"/>
		<path class="st1" d="M2.9-5.8c1.6,0,2.9,1.3,2.9,2.9S4.5,0,2.9,0S0-1.3,0-2.9S1.3-5.8,2.9-5.8z"/>
	</g>
</pattern>
<path class="st1" d="M145.7,25.3c-0.1,0.1-0.2,0.3-0.3,0.6s-0.2,0.5-0.2,0.6c-0.1,0.2-0.2,1.2-0.3,3.1s-0.2,4.1-0.2,6.8
	c-0.1,2.6-0.1,5.3-0.1,8.1s0.1,5.3,0.3,7.3c0.2,1.7,0.6,3.4,1.4,5s2,2.7,3.7,3.1c1.3,0.1,2.5-0.1,3.7-0.6c1.1-0.5,2-1.4,2.6-2.5
	c0.6-1.4,0.9-2.8,0.8-4.3s0-3,0.3-4.5c0.8,0.1,1.8,0.1,2.8,0.1c1-0.1,2.1-0.1,3.1-0.1s2.1,0,3.1,0.1c1,0.1,2,0.2,2.8,0.4
	c1,3.1,1.3,6.1,0.8,9.2s-1.5,5.8-3.1,8.2c-1.6,2.4-3.7,4.4-6.3,6c-2.6,1.6-5.5,2.4-8.8,2.4c-2.1,0.3-4.3,0.3-6.6,0s-4.4-0.9-6.3-1.8
	c-1.9-0.9-3.6-2.2-4.9-3.9c-1.3-1.7-2.1-3.7-2.4-6.2c-0.1-2.1-0.2-4.4-0.3-6.7s-0.1-4.9-0.1-7.8c0-2.9,0-6.1,0-9.8s0.1-7.9,0.1-12.7
	c-0.1-1-0.1-2,0.1-3.1c0.2-1,0.5-2,0.8-2.9c0.5-1.5,1.2-3,2-4.3s1.8-2.5,2.9-3.5c0.6-0.5,1.4-0.9,2.1-1.2c0.8-0.3,1.6-0.6,2.4-0.8
	c2.7-0.9,5.4-1.2,8.1-1.1c2.7,0.2,5.2,0.8,7.5,1.8c2.3,1,4.5,2.4,6.4,4.1c1.9,1.7,3.4,3.7,4.5,5.9c1.1,2.2,1.8,4.6,2,7.2
	c0.2,2.6-0.1,5.3-1.1,8c-2.2,0.5-4.3,0.6-6.4,0.5s-4.3-0.4-6.5-0.8c-0.2-1.1-0.3-2.4-0.3-3.8c0-1.4-0.2-2.7-0.5-3.9
	c-0.3-1.2-0.8-2.2-1.6-3c-0.8-0.8-2.1-1.1-3.8-1.1c-0.8,0.1-1.6,0.3-2.4,0.4C146.9,24.5,146.2,24.8,145.7,25.3L145.7,25.3z"/>
<path class="st1" d="M213.1,61.4v0.2c0.1,1.9,0.1,3.9,0.1,5.9c-0.1,2-0.3,3.9-0.8,5.7c-6-0.1-12.2,0-18.4,0.2
	c-6.2,0.2-12.2,0.1-18-0.4c0-5.1-0.1-10.3-0.2-15.3s-0.2-10.1-0.3-15.1c-0.1-5-0.1-10.1,0-15.1s0.2-10.1,0.5-15.2
	c2.3-0.1,4.8-0.2,7.5-0.3c2.7-0.1,5.4-0.2,8.1-0.2c2.7-0.1,5.4-0.1,7.9-0.2s4.8-0.1,6.8-0.1s3.5,0,4.7,0.1c1.2,0.1,1.8,0.1,1.8,0.2
	c0.3,2.1,0.4,4.2,0.2,6.3c-0.1,2.1-0.2,4.2-0.2,6.3v0.1c-1.9,0.4-3.8,0.7-5.7,0.8c-1.9,0.1-3.9,0.1-5.8,0.1c-1.9,0-3.9,0-5.9,0
	s-3.9,0.1-5.9,0.3h-0.3l-0.1,0.1c0.1,1.7,0,3.5-0.2,5.3s-0.1,3.5,0.3,5.1l0.1,0.1c1.8,0.1,3.6,0.2,5.4,0.2s3.7,0,5.5,0.1v0.1
	c0.3,2,0.4,4,0.3,6c-0.1,2-0.1,4.1-0.1,6.3c-0.9,0.2-1.9,0.4-3,0.4c-1.1,0-2.2,0-3.2,0s-2,0-2.8,0.1s-1.4,0.2-1.7,0.4
	c-0.3,1.7-0.4,3.6-0.3,5.8s0.2,3.9,0.3,5.3l0.1,0.1c3.9,0,7.8,0.1,11.6,0.3C205.1,61.5,209,61.5,213.1,61.4L213.1,61.4z"/>
<path class="st1" d="M260.5,73.2L260.5,73.2c-2,0-4.3,0.1-6.8,0.2c-2.5,0.1-5.1,0.1-7.8,0h-0.1c-0.6-1.4-1.3-3-2.2-4.9
	c-0.9-1.9-1.9-3.9-2.9-5.9c-1.1-2.1-2.2-4.1-3.5-6.1c-1.2-2-2.5-3.8-3.7-5.3l-0.2-0.3c-0.2,1.4-0.3,3-0.3,5s0,4,0.1,6.1
	s0.2,4.1,0.3,6s0.2,3.4,0.3,4.5c-1,0.4-2.3,0.7-4,0.8c-1.6,0.1-3.2,0.2-4.8,0.2s-3,0-4.3,0c-1.3-0.1-2.1-0.1-2.4,0
	c0.1,0,0.2-0.8,0.3-2.4s0.1-3.8,0.1-6.4v-9.2c0-3.5,0-7.1,0-10.8s-0.1-7.4-0.2-11s-0.2-7-0.2-10c-0.1-3.1-0.1-5.7-0.2-7.8
	c-0.1-2.2-0.2-3.6-0.3-4.4c3.3-0.5,7-0.9,10.9-1.3s8.1-0.4,12.4,0.1c3.5,0.2,6.6,1.2,9.4,3c2.8,1.8,4.9,4.1,6.5,6.8
	c1.5,2.7,2.4,5.7,2.4,9c0.1,3.3-0.8,6.5-2.6,9.6c-1.1,2.1-2.6,3.9-4.5,5.3s-4.2,2.2-7.1,2.4h-0.4v0.1c1.2,2.2,2.6,4.4,4.1,6.5
	s2.9,4.3,4.4,6.5s2.8,4.4,4.1,6.7C258.5,68.4,259.6,70.8,260.5,73.2L260.5,73.2z M230.5,23.8c0.1,0.8,0.1,1.6,0.1,2.6s0,2,0,3
	s0,2,0,2.9c0,0.9,0.1,1.8,0.2,2.4h0.1c1.4,0.1,2.8,0.2,4.4,0.3s3.1,0,4.5-0.3c1.1-0.2,2-0.8,2.6-1.7s1-1.9,1.1-3s0-2.2-0.4-3.3
	c-0.4-1.1-1-2-1.8-2.6c-1.3-1.2-3-1.7-5-1.6S232.6,23,230.5,23.8L230.5,23.8z"/>
<path class="st1" d="M299.5,20.8c0.4,0.9,0.7,1.8,0.9,2.7c0.2,0.9,0.4,1.9,0.5,2.8c0.1,1.5,0.2,2.9,0.2,4.4s0,2.9,0,4.4
	c-0.2,3.1-0.2,6.2-0.2,9.1c0.1,3,0,6-0.3,9.1l-0.3,2.9c-0.1,2.1-0.4,4.2-1,6.3c-0.5,2.1-1.3,4-2.4,5.7c-1,1.4-2.3,2.6-4,3.4
	s-3.4,1.5-5.2,2c-1.7,0.5-3.3,0.8-5,0.9s-3.4,0.1-5.1,0c-1.2-0.1-2.4-0.3-3.6-0.5s-2.2-0.6-3.3-1s-2-1.1-2.8-1.8s-1.5-1.7-2-2.9
	c-0.8-1.5-1.4-3.1-1.6-4.8s-0.4-3.4-0.5-5.1c-0.2-4.6-0.4-9.2-0.6-13.9s-0.2-9.3,0.1-14c0.1-2.7,0.4-5.3,1-8
	c0.6-2.7,1.9-5.1,3.7-7.2c0.6-0.6,1.3-1.1,2-1.6c2-0.9,4.1-1.6,6.4-2.1c2.3-0.4,4.6-0.6,6.8-0.5s4.5,0.5,6.7,1.2s4.1,1.7,5.8,3
	C297.5,17,298.7,18.8,299.5,20.8L299.5,20.8z M290,42.5l-0.2-6c0-0.1,0-0.7-0.1-1.8c-0.1-1.2-0.2-2.2-0.2-3.2
	c-0.1-1.7-0.6-3.2-1.4-4.5c-0.8-1.4-1.9-2.4-3.2-3c-1.2-0.5-2.4-0.6-3.6-0.3c-1.2,0.3-2.3,0.8-3.3,1.5c-2.1,1.6-3.5,3.6-4.2,6.1
	c-0.5,2.2-0.8,4.6-0.8,7.1s-0.1,5,0,7.5c0.3,2.1,0.5,4.2,0.6,6.4s0.5,4.2,1.1,6.2c0.6,1.2,1.5,2.1,2.6,2.8c1.1,0.6,2.3,1,3.6,1.1
	c1.3,0.1,2.6-0.1,3.9-0.5s2.4-1.2,3.3-2.2c0.5-0.7,0.9-1.3,1.2-1.7s0.4-0.9,0.4-1.5c0.1-0.5,0.1-1.2,0-1.9s0-1.7,0.1-3
	c0.1-1.2,0.1-2.2,0.1-3.1s0-1.4,0-1.5L290,42.5L290,42.5z"/>
<path class="st1" d="M171.6,105.2v1.3c0,0.4,0,0.8-0.1,1.1c-0.4,2.8-1.3,5.4-2.8,7.8c-1.5,2.4-3.4,4.4-5.6,6
	c-2.2,1.7-4.7,2.9-7.5,3.6s-5.5,0.9-8.4,0.4c0.1,0.8,0.1,1.6,0.1,2.4v3.5c0,1.5,0,3.5,0,6.1c0,2.6,0.1,6,0.2,10.3v0.1
	c-0.1,0-0.1,0-0.1,0s-0.1,0-0.1,0c-0.8,0.2-1.9,0.4-3.1,0.5c-1.3,0.1-2.6,0.1-4,0.2s-2.8,0-4.1,0c-1.4-0.1-2.6-0.1-3.6-0.3
	c-0.2-4.3-0.3-9-0.3-14.1v-15.6c0-5.3,0-10.7,0-16.1S132,92,131.9,87.1c2.4-0.6,5.1-1.1,7.9-1.4s5.7-0.3,8.6-0.1
	c2.9,0.2,5.7,0.8,8.4,1.6s5.1,2,7.2,3.6s3.8,3.5,5.2,5.9C170.6,99,171.4,101.8,171.6,105.2L171.6,105.2z M156,101.5
	c-1.5-1.2-3.2-1.9-5.1-2.3c-1.9-0.3-3.9-0.2-5.8,0.2c-0.1,0-0.2,0-0.3,0.1c0.1,1.1,0.1,2.2,0,3.4c0,1.2,0,2.4,0,3.6
	c0,1.2,0.1,2.3,0.2,3.4c0.1,1.1,0.3,2.1,0.6,3h0.3c0.9-0.1,2-0.1,3-0.1c1.1,0,2.1-0.1,3.1-0.2c1-0.1,2-0.3,3-0.7
	c1-0.3,1.8-0.8,2.5-1.6c0.5-0.6,0.8-1.4,1-2.2s0.2-1.7,0.1-2.5c-0.1-0.8-0.4-1.6-0.9-2.3S156.8,102,156,101.5L156,101.5z"/>
<path class="st1" d="M200.7,117.7l6.7,31.1v0.1c-1.8,0.4-3.7,0.5-5.9,0.4s-4.1-0.3-6-0.8h-0.1c-0.4-1-0.7-2.1-1-3.4
	c-0.3-1.3-0.6-2.6-1-4c-0.3-1.4-0.7-2.7-1-3.9c-0.4-1.2-0.7-2.3-1.2-3.2c-0.8-0.1-1.4-0.2-1.8-0.2h-1.1c-0.3,0-0.7,0-1.1,0
	c-0.4,0-0.9,0-1.6,0c-0.4,0.9-0.8,2.1-1,3.3c-0.3,1.3-0.5,2.6-0.8,4s-0.6,2.7-0.8,4c-0.3,1.3-0.7,2.5-1.2,3.5c-0.1,0-0.1,0-0.1,0
	s-0.1,0-0.1,0c-0.5,0.1-1.7,0.1-3.6,0c-1.9-0.1-4.9-0.1-8.9-0.1c-0.1,0-0.1,0-0.2-0.1c0.1-0.4,0.3-1.6,0.6-3.5
	c0.3-1.9,0.7-4.4,1.2-7.4s1.2-6.5,1.9-10.4s1.6-8.1,2.6-12.6c1-4.4,2.1-9.1,3.3-13.9c1.2-4.8,2.5-9.6,3.9-14.3
	c0.4-0.1,0.9-0.1,1.3-0.1h1.9c0.8,0,1.8,0,3,0c1.2,0,2.8-0.1,4.8-0.3c0.2,0.8,0.5,1.9,0.8,3.5c0.4,1.6,0.8,3.4,1.2,5.3
	c0.4,2,0.9,4.1,1.4,6.4s1,4.4,1.5,6.5c0.5,2.1,0.9,4,1.3,5.7S200.5,116.6,200.7,117.7L200.7,117.7z M191.6,123.4
	c-0.6-5.1-1.1-9.1-1.6-11.9s-0.8-4.8-1.1-5.8c-0.3-1-0.6-1.2-1-0.7s-0.6,1.7-0.9,3.4s-0.6,3.9-0.9,6.5c-0.3,2.6-0.7,5.4-1.1,8.4
	c1,0.1,2.1,0.1,3.2,0C189.4,123.5,190.5,123.4,191.6,123.4L191.6,123.4z"/>
<path class="st1" d="M241.4,87.1c0.1,1.9,0.2,4.2,0.1,6.8c0,2.6-0.2,4.9-0.5,7c-1.1-0.2-2.5-0.3-4.2-0.3c-1.7,0.1-3.9,0.1-6.7,0.3
	h-0.3c0,0.1,0,0.1,0,0.1s0,0.1,0,0.1c-0.1,0.3-0.1,0.8-0.1,1.4c0,0.6,0,1.6,0,2.9s0,3.1,0,5.2s0.1,4.9,0.1,8.4
	c0.1,3.4,0.1,7.5,0.2,12.3c0.1,4.8,0.1,10.4,0.3,16.8v0.2c-1.1,0.2-2.2,0.3-3.5,0.3c-1.3,0-2.5,0-3.8,0h-3.8c-1.2,0-2.4,0.1-3.5,0.3
	c-0.1-0.2-0.1-1.3,0-3.2c0.1-1.9,0.1-4.7,0.1-8.5s0-8.6-0.1-14.4c-0.1-5.9-0.3-12.9-0.7-21.2l-0.1-0.1c-0.7-0.4-1.6-0.6-2.7-0.7
	c-1.1-0.1-2.1-0.1-3.2-0.2c-1.1,0-2,0-2.9,0s-1.5-0.1-1.9-0.2c-0.1-0.2-0.2-0.8-0.3-1.8s-0.1-2.1-0.2-3.4s0-2.8,0-4.3s0.1-3,0.2-4.4
	c0-0.1,0-0.1,0-0.1s0,0,0-0.1c6-0.1,12.3-0.1,18.7-0.1C229,86.1,235.3,86.4,241.4,87.1L241.4,87.1z"/>
<path class="st1" d="M270.5,117.7l6.7,31.1v0.1c-1.8,0.4-3.7,0.5-5.9,0.4s-4.1-0.3-6-0.8h-0.1c-0.4-1-0.7-2.1-1-3.4
	c-0.3-1.3-0.6-2.6-1-4c-0.3-1.4-0.7-2.7-1-3.9c-0.4-1.2-0.7-2.3-1.2-3.2c-0.8-0.1-1.4-0.2-1.8-0.2h-1.1c-0.3,0-0.7,0-1.1,0
	s-0.9,0-1.5,0c-0.4,0.9-0.8,2.1-1,3.3c-0.3,1.3-0.5,2.6-0.8,4s-0.5,2.7-0.8,4c-0.3,1.3-0.7,2.5-1.2,3.5c-0.1,0-0.1,0-0.1,0
	s-0.1,0-0.1,0c-0.5,0.1-1.7,0.1-3.5,0c-1.9-0.1-4.9-0.1-8.9-0.1c-0.1,0-0.1,0-0.2-0.1c0.1-0.4,0.3-1.6,0.6-3.5
	c0.3-1.9,0.7-4.4,1.2-7.4s1.2-6.5,1.9-10.4s1.6-8.1,2.6-12.6c1-4.4,2.1-9.1,3.3-13.9c1.2-4.8,2.5-9.6,3.9-14.3
	c0.4-0.1,0.9-0.1,1.3-0.1h1.9c0.8,0,1.8,0,3,0c1.2,0,2.8-0.1,4.8-0.3c0.2,0.8,0.5,1.9,0.8,3.5c0.4,1.6,0.8,3.4,1.2,5.3
	c0.4,2,0.9,4.1,1.4,6.4s1,4.4,1.5,6.5c0.5,2.1,0.9,4,1.3,5.7C270,115.3,270.3,116.6,270.5,117.7L270.5,117.7z M261.5,123.4
	c-0.6-5.1-1.1-9.1-1.5-11.9s-0.8-4.8-1.1-5.8c-0.3-1-0.6-1.2-1-0.7c-0.3,0.6-0.6,1.7-0.9,3.4c-0.3,1.7-0.6,3.9-0.9,6.5
	c-0.3,2.6-0.7,5.4-1.1,8.4c1,0.1,2.1,0.1,3.2,0C259.2,123.5,260.3,123.4,261.5,123.4L261.5,123.4z"/>
<path class="st1" d="M311.2,87.1c0.1,1.9,0.2,4.2,0.1,6.8c0,2.6-0.2,4.9-0.5,7c-1.1-0.2-2.5-0.3-4.2-0.3c-1.7,0.1-3.9,0.1-6.7,0.3
	h-0.3c0,0.1,0,0.1,0,0.1s0,0.1,0,0.1c-0.1,0.3-0.1,0.8-0.1,1.4c0,0.6,0,1.6,0,2.9s0,3.1,0,5.2s0.1,4.9,0.1,8.4
	c0.1,3.4,0.1,7.5,0.2,12.3c0.1,4.8,0.1,10.4,0.3,16.8v0.2c-1.1,0.2-2.2,0.3-3.5,0.3c-1.3,0-2.5,0-3.8,0H289c-1.2,0-2.4,0.1-3.5,0.3
	c-0.1-0.2-0.1-1.3,0-3.2c0.1-1.9,0.1-4.7,0.1-8.5s0-8.6-0.1-14.4c-0.1-5.9-0.3-12.9-0.7-21.2l-0.1-0.1c-0.7-0.4-1.6-0.6-2.7-0.7
	s-2.1-0.1-3.2-0.2s-2,0-2.9,0s-1.5-0.1-1.9-0.2c-0.1-0.2-0.2-0.8-0.3-1.8s-0.1-2.1-0.2-3.4s0-2.8,0-4.3s0.1-3,0.2-4.4
	c0-0.1,0-0.1,0-0.1s0,0,0-0.1c6-0.1,12.3-0.1,18.7-0.1C298.8,86.1,305.1,86.4,311.2,87.1L311.2,87.1z"/>
<path class="st1" d="M353.3,136.8v0.2c0.1,1.9,0.1,3.9,0.1,5.9c-0.1,2-0.3,3.9-0.8,5.7c-6-0.1-12.2,0-18.4,0.2
	c-6.2,0.2-12.2,0.1-18-0.4c0-5.1-0.1-10.3-0.2-15.3c-0.1-5.1-0.2-10.1-0.3-15.1c-0.1-5-0.1-10.1,0-15.1s0.2-10.1,0.5-15.2
	c2.3-0.1,4.8-0.2,7.5-0.3c2.7-0.1,5.4-0.2,8.1-0.2c2.7-0.1,5.4-0.1,7.9-0.2c2.5-0.1,4.8-0.1,6.8-0.1s3.5,0,4.7,0.1
	c1.2,0.1,1.8,0.1,1.8,0.2c0.3,2.1,0.4,4.2,0.2,6.3c-0.1,2.1-0.2,4.2-0.2,6.3v0.1c-1.9,0.4-3.8,0.7-5.7,0.8c-1.9,0.1-3.9,0.1-5.8,0.1
	c-2,0-3.9,0-5.9,0s-3.9,0.1-5.9,0.3h-0.3l-0.1,0.1c0.1,1.7,0,3.5-0.2,5.3s-0.1,3.5,0.3,5.1l0.1,0.1c1.8,0.1,3.6,0.2,5.4,0.2
	s3.7,0,5.5,0.1v0.1c0.3,2,0.4,4,0.3,6c-0.1,2-0.1,4.1-0.1,6.3c-0.9,0.2-1.9,0.4-3,0.4c-1.1,0-2.2,0-3.2,0s-2,0-2.8,0.1
	s-1.4,0.2-1.7,0.4c-0.3,1.7-0.4,3.6-0.3,5.8s0.2,3.9,0.3,5.3l0.1,0.1c3.9,0,7.8,0.1,11.5,0.3C345.4,136.9,349.3,136.9,353.3,136.8
	L353.3,136.8z"/>
<path class="st1" d="M400.7,148.6L400.7,148.6c-2,0-4.3,0.1-6.8,0.2c-2.5,0.1-5.1,0.1-7.8,0H386c-0.6-1.4-1.3-3-2.2-4.9
	c-0.9-1.9-1.9-3.9-2.9-5.9c-1.1-2.1-2.2-4.1-3.5-6.1c-1.2-2-2.5-3.8-3.7-5.3l-0.2-0.3c-0.2,1.4-0.3,3-0.3,5s0,4,0.1,6.1
	s0.2,4.1,0.3,6s0.2,3.4,0.3,4.5c-1,0.4-2.3,0.7-4,0.8c-1.6,0.1-3.2,0.2-4.8,0.2s-3,0-4.3,0c-1.3-0.1-2.1-0.1-2.4,0
	c0.1,0,0.2-0.8,0.3-2.4s0.1-3.8,0.1-6.4v-9.2c0-3.5,0-7.1,0-10.8s-0.1-7.4-0.2-11s-0.2-7-0.2-10c-0.1-3.1-0.1-5.7-0.2-7.8
	s-0.2-3.6-0.3-4.4c3.3-0.5,7-0.9,10.9-1.3s8.1-0.4,12.4,0.1c3.5,0.2,6.6,1.2,9.4,3c2.8,1.8,4.9,4.1,6.5,6.8c1.5,2.7,2.4,5.7,2.4,9
	c0.1,3.3-0.8,6.5-2.6,9.6c-1.1,2.1-2.6,3.9-4.5,5.3s-4.2,2.2-7.1,2.4H385v0.1c1.2,2.2,2.6,4.4,4.1,6.5s2.9,4.3,4.4,6.5
	s2.8,4.4,4.1,6.7C398.8,143.8,399.9,146.2,400.7,148.6L400.7,148.6z M370.8,99.2c0.1,0.8,0.1,1.6,0.1,2.6s0,2,0,3s0,2,0,2.9
	c0,0.9,0.1,1.8,0.2,2.4h0.1c1.4,0.1,2.8,0.2,4.4,0.3s3.1,0,4.5-0.3c1.1-0.2,2-0.8,2.6-1.7s1-1.9,1.1-3s0-2.2-0.4-3.3
	c-0.4-1.1-1-2-1.8-2.6c-1.3-1.2-3-1.7-5-1.6S372.9,98.4,370.8,99.2L370.8,99.2z"/>
<path class="st1" d="M439.7,96.3c0.4,0.9,0.7,1.8,0.9,2.7c0.2,0.9,0.4,1.9,0.5,2.8c0.1,1.5,0.2,2.9,0.2,4.4s0,2.9,0,4.4
	c-0.2,3.1-0.2,6.2-0.2,9.1c0.1,3,0,6-0.3,9.1l-0.3,2.9c-0.1,2.1-0.4,4.2-1,6.3c-0.5,2.1-1.3,4-2.4,5.7c-1,1.4-2.3,2.6-4,3.4
	s-3.4,1.5-5.2,2c-1.7,0.5-3.3,0.8-5,0.9c-1.7,0.1-3.4,0.1-5.1,0c-1.2-0.1-2.4-0.3-3.6-0.5s-2.2-0.5-3.3-1s-2-1.1-2.8-1.8
	c-0.8-0.7-1.5-1.7-2-2.9c-0.8-1.5-1.4-3.1-1.6-4.8s-0.4-3.4-0.5-5.1c-0.2-4.6-0.4-9.2-0.6-13.9s-0.2-9.3,0.1-14c0.1-2.7,0.4-5.3,1-8
	c0.6-2.7,1.9-5.1,3.7-7.1c0.6-0.6,1.3-1.1,2-1.6c2-0.9,4.1-1.6,6.4-2.1c2.3-0.4,4.6-0.6,6.8-0.5s4.5,0.5,6.7,1.2s4.1,1.7,5.8,3
	C437.8,92.4,439,94.2,439.7,96.3L439.7,96.3z M430.2,117.9l-0.2-6c0-0.1,0-0.7-0.1-1.8c-0.1-1.2-0.2-2.2-0.2-3.2
	c-0.1-1.7-0.6-3.2-1.4-4.5c-0.8-1.4-1.9-2.4-3.2-3c-1.2-0.5-2.4-0.6-3.6-0.3c-1.2,0.3-2.3,0.8-3.3,1.5c-2.1,1.6-3.5,3.6-4.2,6.1
	c-0.5,2.2-0.8,4.6-0.8,7.1s-0.1,5,0,7.5c0.3,2.1,0.5,4.2,0.6,6.4s0.5,4.2,1.1,6.2c0.6,1.2,1.5,2.1,2.6,2.8c1.1,0.6,2.3,1,3.6,1.1
	c1.3,0.1,2.6-0.1,3.9-0.5s2.4-1.2,3.3-2.2c0.5-0.7,0.9-1.3,1.2-1.7s0.4-0.9,0.4-1.5c0.1-0.5,0.1-1.2,0-1.9s0-1.7,0.1-3
	c0.1-1.2,0.1-2.2,0.1-3.1s0-1.4,0-1.5L430.2,117.9L430.2,117.9z"/>
<path class="st1" d="M42.8,48.2c0.2,0.1,0.3,0.1,0.5,0.1c0.4,0,0.9-0.2,1.1-0.7c0.1-0.1,1.6-3.1,5.8-2.7c0.7,0.1,1.2-0.4,1.3-1.1
	c0.1-0.6-0.4-1.2-1.1-1.3c-5.9-0.5-8.1,3.9-8.2,4.1C42,47.3,42.2,48,42.8,48.2L42.8,48.2z"/>
<path class="st1" d="M69.9,45.9c-2,0.5-3.5,0.4-4.5-0.3c-1.1-0.8-1.2-2.1-1.2-2.1c-0.1-0.6-0.6-1.1-1.3-1.1s-1.1,0.6-1.1,1.3
	c0,0.1,0.2,2.4,2.2,3.8c1,0.7,2.2,1.1,3.7,1.1c0.8,0,1.8-0.1,2.7-0.4c0.6-0.1,1-0.8,0.9-1.4C71.2,46.1,70.5,45.7,69.9,45.9
	L69.9,45.9z"/>
<path class="st1" d="M49.6,49c-1.1-0.6-2.6-0.2-3.2,0.9c-2.2,3.9-1.9,9.8-1.8,10.5c0.1,1.2,1.1,2.2,2.4,2.2c0.1,0,0.1,0,0.2,0
	c1.3-0.1,2.3-1.2,2.2-2.5c-0.1-1.4-0.1-5.5,1.2-7.8C51.2,51.1,50.8,49.7,49.6,49L49.6,49z"/>
<path class="st1" d="M61.1,63.3L61.1,63.3c1.3,0,2.4-1.1,2.4-2.4c0-1.3,0.3-5.2,1.6-7.5c0.7-1.1,0.2-2.6-0.9-3.2
	c-1.1-0.6-2.6-0.2-3.2,0.9c-2.2,3.9-2.2,9.6-2.2,9.9C58.7,62.3,59.8,63.3,61.1,63.3z"/>
<path class="st1" d="M66.4,66.4c-0.3-0.2-0.8-0.2-1.2-0.1c-11.9,6.1-22.1,0.3-22.6,0c-0.4-0.2-0.9-0.2-1.3,0.1s-0.5,0.8-0.4,1.3
	c0,0,0.8,2.8,2.5,6.2l0,0c2.5,5.2,6.8,11.4,12.7,11.5c0,0,0.1,0,0.1,0c4.9,0,8.4-4.2,10-12.2l0,0l0,0l0,0l0,0
	c0.6-3.1,0.7-5.6,0.7-5.7C66.9,67,66.7,66.6,66.4,66.4L66.4,66.4z M64.4,69.3c-0.1,0.8-0.2,1.8-0.4,2.9c-3.4,2.8-7.5,3.7-12.3,2.7
	c-3.1-0.7-5.5-1.9-6.3-2.4c-0.5-1.1-0.9-2.1-1.3-2.9C48,71.1,55.7,73,64.4,69.3L64.4,69.3z"/>
<path class="st1" d="M9.8,64.9c6.2,0.6,7.8,7,7.9,7.3c0.1,0.5,0.6,0.9,1.2,0.9c0.1,0,0.2,0,0.2,0c0.6-0.1,1-0.7,1-1.3
	c-0.7-5.1,3.8-9.6,3.8-9.6c0.4-0.3,0.5-0.9,0.3-1.3c-0.2-0.4-0.7-0.7-1.2-0.7c-3.4,0.2-5.1-4.1-5.1-4.1c-0.2-0.5-0.7-0.8-1.2-0.8
	c-0.5,0.1-1,0.5-1,1c-0.8,5.2-5.7,6.3-5.9,6.4c-0.6,0.1-1,0.6-0.9,1.2C8.8,64.4,9.2,64.9,9.8,64.9L9.8,64.9z M17.2,59.4
	c0.8,1.1,2,2.2,3.6,2.8c-0.9,1.2-2.1,3.1-2.7,5.2c-1-1.5-2.5-3-4.5-3.9C14.8,62.6,16.2,61.3,17.2,59.4z"/>
<path class="st1" d="M108.2,43.8c3.4-0.4,6.2-3.3,7.5-4.7c0.4-0.4,0.2-1.2-0.4-1.3c-3.5-1.1-9.7,2.8-9.7,2.8c0.4-0.9,3.7-8.4,1.1-9
	c-2.6-0.7-6.7,8-6.7,8c-3.2-6.2-5.9-4.1-5.9-4.1c-1.1,0.2,0.7,10,0.7,10c-6,12-14,17.9-17.2,19.9c-0.5-5.5-0.4-11.1,0.5-15.4
	c0.1-0.4,0.2-0.8,0.2-1.2c1.2-1.1,4.8-4.4,7.5-8.9c4.4-7.5,4.2-14.8-0.8-20.9c-3.8-4.8-8.2-7.5-12.8-7.8c-4.9-0.4-8.8,1.9-10.5,3.1
	c-5.5-3.3-12.6-5.7-19.7-2.7c-3.9,1.7-6.2,4.2-6.8,7.5C34,25.7,40,33.2,42.5,35.9c-2.7,3-4.7,6.3-6.2,9.1
	c-3.1,5.7-4.5,10.5-4.6,10.9c-2.8,8.4-2.7,15.7-1.4,21.6c-2.7,3.3-8,14.7-10.5,20.4c-0.8,1.8-2.5,2.9-4.5,2.9
	c-3.9,0-7.4,1.2-7.6,2.6c-0.3,1.7,8.6,1.1,6.6,1.8s-6.1,4.4-5.6,7.4s8.3-4.3,8.3-4.3s-5.2,5.9-2.8,8.5c2.5,2.7,5.8-6,5.8-6
	c1.4,3,3.2,5.9,4.7,5.7c1.3-0.1,2.2-1.5,1.8-2.7c-0.6-2.1-1.7-5.4-2.4-7.6c-1.2-3.8,5.3-18,7.7-23.1c0.9,2.2,1.9,4.1,2.9,5.8
	c2.8,4.6,7.1,8.3,12.1,10.6c-1.4,5.4-5.6,24.4-0.8,37.5c-2.3,0-5.2,0.2-7.6,0.8c-2.3,0.6-6.4,2-7.9,4.5c-0.5,0.9-0.6,1.8-0.4,2.7
	c0.3,0.9,1.3,1.7,3.1,2.3c2,0.6,4.8,1.1,7.7,1.1c3.9,0,8-0.8,10.6-2.8c0.1-0.1,0.1-0.1,0.2-0.2c0.1-0.1,2.1-2.8,0-6.7
	c-0.6-2.9-4.7-25.2,0.9-37.2c3.5,1,6.8,1.5,9.8,1.5c1.9,0,3.7-0.2,5.4-0.6c-0.2,4.3-0.3,23.1,13.7,30.3c-0.1,0.1-0.2,0.2-0.2,0.3
	c-1.2,2.5-4.8,10.8-2.7,13.6c0.9,1.2,2.4,1.9,3.9,1.9c0.4,0,0.8,0,1.1-0.1c1.9-0.4,6.7-2.3,9.5-12.3c0.7-2.4-0.1-4.9-1.9-6.6
	c-1.8-1.6-4.4-2.1-6.7-1.2l-0.3,0.1c0,0-0.1,0-0.1,0.1c-3.5-2.7-11.9-11-11.2-28.1c1-0.6,1.9-1.2,2.8-2c5-4.3,6.8-11.3,4.8-17.8
	c-0.8-2.6-1.5-5.7-2.1-9.1c6.1-0.4,20.9-22.9,21.4-22.6c0.6,0.2,15.5,1.8,16.3,0C117.4,46.1,108.2,43.8,108.2,43.8L108.2,43.8z
	 M72.1,14.1c3.8,0.3,7.4,2.6,10.7,6.7c4.1,5.2,4.3,11.1,0.6,17.5c-1.3,2.2-2.8,4.1-4.2,5.6c0.1-0.8,0.9-8-1.1-12.7
	c-1.6-3.7-6.8-10.1-13.1-14.8c-0.2-0.1-0.3-0.3-0.5-0.4C66.1,15.1,68.8,13.8,72.1,14.1z M38.2,19.6c0.4-2.3,2.1-4,5.1-5.3
	c7.3-3.2,14.9,0.7,20,4.5c4.8,3.6,8.6,7.9,10.7,11.1c-0.8-0.6-1.7-1.1-2.6-1.4c-7.1-2.8-13.7-2.7-19.8,0.3c-2.6,1.3-4.9,3.1-7,5
	C42.3,31.2,37.2,24.8,38.2,19.6z M73.7,96.1c-5.5,4.8-13.6,5.2-23.9,1.4c-5.2-2-9.7-5.6-12.5-10.2c-3.8-6.2-7.4-16.6-2.9-30.4l0-0.1
	c0.1-0.2,5.7-19.2,18.4-25.4c2.7-1.3,5.5-2,8.5-2s5.8,0.6,8.9,1.8c3.1,1.2,5.3,4.1,5.7,7.4c0.4,3.2,0.2,6.9-0.7,10.8
	c-2,9-0.3,23.7,2.4,32.1C79.3,86.9,77.8,92.6,73.7,96.1L73.7,96.1z"/>
<pattern  id="SVGID_1_" xlink:href="#_10_ppp_40_" patternTransform="matrix(0.26 0 0 -0.26 -14171.1289 -4487.4551)">
</pattern>
<path class="st3" d="M78.2,42.6c0,0,1-7.5-1-11.9c-2.8-6.4-19.5-25.2-34.1-18.9S45,34.8,45,34.8l5.1-4.3l4.3-2.2l9.1-1.3l8.8,2.3
	l3.8,3L78.2,42.6L78.2,42.6z"/>
<pattern  id="SVGID_00000152963517899997309780000005475094319096659337_" xlink:href="#_10_ppp_20_3" patternTransform="matrix(0.23 0 0 -0.23 -14714.0537 -3964.2629)">
</pattern>
<path style="fill:url(#SVGID_00000152963517899997309780000005475094319096659337_);" d="M42.6,37.6c0,0,25.6-10.3,34.6,4.9v-8.8
	l-5.9-4.9l-5.7-2.1l-8.3,0.5l-6.4,1.6l-3.5,4.1L42.6,37.6L42.6,37.6z"/>
<pattern  id="SVGID_00000149356531408425600060000011418971682246240642_" xlink:href="#_10_ppp_20_3" patternTransform="matrix(0.23 0 0 -0.23 -14714.0537 -3964.2629)">
</pattern>
<path style="fill:url(#SVGID_00000149356531408425600060000011418971682246240642_);" d="M45,95.4c0,0,31.2,2.3,34.6-15.5l0.8,6.7
	l-1.9,5.5c0,0-8,9.3-12.9,8.1c-4.9-1.2-9.8-0.7-9.8-0.7L45,95.4L45,95.4z"/>
<path class="st1" d="M42.8,48.2c0.2,0.1,0.3,0.1,0.5,0.1c0.4,0,0.9-0.2,1.1-0.7c0.1-0.1,1.6-3.1,5.8-2.7c0.7,0.1,1.2-0.4,1.3-1.1
	c0.1-0.6-0.4-1.2-1.1-1.3c-5.9-0.5-8.1,3.9-8.2,4.1C42,47.3,42.2,48,42.8,48.2L42.8,48.2z"/>
<path class="st1" d="M69.9,45.9c-2,0.5-3.5,0.4-4.5-0.3c-1.1-0.8-1.2-2.1-1.2-2.1c-0.1-0.6-0.6-1.1-1.3-1.1s-1.1,0.6-1.1,1.3
	c0,0.1,0.2,2.4,2.2,3.8c1,0.7,2.2,1.1,3.7,1.1c0.8,0,1.8-0.1,2.7-0.4c0.6-0.1,1-0.8,0.9-1.4C71.2,46.1,70.5,45.7,69.9,45.9
	L69.9,45.9z"/>
<path class="st1" d="M49.6,49c-1.1-0.6-2.6-0.2-3.2,0.9c-2.2,3.9-1.9,9.8-1.8,10.5c0.1,1.2,1.1,2.2,2.4,2.2c0.1,0,0.1,0,0.2,0
	c1.3-0.1,2.3-1.2,2.2-2.5c-0.1-1.4-0.1-5.5,1.2-7.8C51.2,51.1,50.8,49.7,49.6,49L49.6,49z"/>
<path class="st1" d="M61.1,63.3L61.1,63.3c1.3,0,2.4-1.1,2.4-2.4c0-1.3,0.3-5.2,1.6-7.5c0.7-1.1,0.2-2.6-0.9-3.2
	c-1.1-0.6-2.6-0.2-3.2,0.9c-2.2,3.9-2.2,9.6-2.2,9.9C58.7,62.3,59.8,63.3,61.1,63.3z"/>
<path class="st1" d="M66.4,66.4c-0.3-0.2-0.8-0.2-1.2-0.1c-11.9,6.1-22.1,0.3-22.6,0c-0.4-0.2-0.9-0.2-1.3,0.1s-0.5,0.8-0.4,1.3
	c0,0,0.8,2.8,2.5,6.2l0,0c2.5,5.2,6.8,11.4,12.7,11.5c0,0,0.1,0,0.1,0c4.9,0,8.4-4.2,10-12.2l0,0l0,0l0,0l0,0
	c0.6-3.1,0.7-5.6,0.7-5.7C66.9,67,66.7,66.6,66.4,66.4L66.4,66.4z M64.4,69.3c-0.1,0.8-0.2,1.8-0.4,2.9c-3.4,2.8-7.5,3.7-12.3,2.7
	c-3.1-0.7-5.5-1.9-6.3-2.4c-0.5-1.1-0.9-2.1-1.3-2.9C48,71.1,55.7,73,64.4,69.3L64.4,69.3z"/>
<path class="st1" d="M9.8,64.9c6.2,0.6,7.8,7,7.9,7.3c0.1,0.5,0.6,0.9,1.2,0.9c0.1,0,0.2,0,0.2,0c0.6-0.1,1-0.7,1-1.3
	c-0.7-5.1,3.8-9.6,3.8-9.6c0.4-0.3,0.5-0.9,0.3-1.3c-0.2-0.4-0.7-0.7-1.2-0.7c-3.4,0.2-5.1-4.1-5.1-4.1c-0.2-0.5-0.7-0.8-1.2-0.8
	c-0.5,0.1-1,0.5-1,1c-0.8,5.2-5.7,6.3-5.9,6.4c-0.6,0.1-1,0.6-0.9,1.2C8.8,64.4,9.2,64.9,9.8,64.9L9.8,64.9z M17.2,59.4
	c0.8,1.1,2,2.2,3.6,2.8c-0.9,1.2-2.1,3.1-2.7,5.2c-1-1.5-2.5-3-4.5-3.9C14.8,62.6,16.2,61.3,17.2,59.4z"/>
<pattern  id="SVGID_00000150823988556480130080000000753274219091339182_" xlink:href="#_10_ppp_40_2" patternTransform="matrix(0.26 0 0 -0.26 -14171.1289 -4487.4551)">
</pattern>
<path style="fill:url(#SVGID_00000150823988556480130080000000753274219091339182_);" d="M78.2,42.6c0,0,1-7.5-1-11.9
	c-2.8-6.4-19.5-25.2-34.1-18.9S45,34.8,45,34.8l5.1-4.3l4.3-2.2l9.1-1.3l8.8,2.3l3.8,3L78.2,42.6L78.2,42.6z"/>
<path class="st1" d="M90.7,100.4c1.4-0.2,3.3-0.9,4.9-3c0.2-0.3,0.8-0.2,0.8,0.2c0.2,1.3,1,3.4,3.1,4.5c0.4,0.2,0.4,0.7,0,0.9
	c-1.5,0.5-3.7,1.6-5.3,4.1c-0.2,0.4-0.8,0.2-0.9-0.2c-0.1-1.6-0.8-4-2.9-5.6C90.1,101,90.2,100.5,90.7,100.4L90.7,100.4z"/>
</svg>
